<?xml version="1.0" encoding="UTF-8"?>
<svg id="svg8" width="125mm" height="8mm" version="1.1" viewBox="0 0 125 8" xmlns="http://www.w3.org/2000/svg">
  <g id="layer1" transform="translate(-16 -127)">
    <path id="race-road" d="m16 135h125" style="fill:none;stroke-dasharray:2.11667, 1.05833;stroke-width:.5;stroke:#616161"/>
    <g id="race-car-picture" transform="translate(.3)">
      <g id="g946">
        <path id="path839" d="m17 129h-0.7q-0.2 0-0.4 0.09-0.2 0.09-0.4 0.2-0.2 0.1-0.2 0.3-0.09 0.2-0.09 0.4v3h2q0.06 0.2 0.2 0.3 0.1 0.1 0.2 0.2 0.1 0.1 0.3 0.1 0.2 0.05 0.3 0.05 0.4 0 0.6-0.2 0.3-0.2 0.4-0.5h4q0.06 0.2 0.2 0.3 0.1 0.1 0.2 0.2 0.1 0.1 0.3 0.1 0.2 0.05 0.3 0.05 0.4 0 0.6-0.2 0.3-0.2 0.4-0.5h2v-3q0-0.2-0.09-0.4-0.09-0.2-0.2-0.3-0.2-0.2-0.4-0.2-0.2-0.09-0.4-0.09h-1q-0.3-0.6-0.6-1-0.3-0.5-0.6-1h-5q-0.3 0.6-0.6 1-0.3 0.5-0.6 1z" style="fill:#000000"/>
        <path id="path850" d="m24 132q0.2 0 0.3 0.1t0.1 0.3q0 0.1-0.1 0.3-0.1 0.1-0.3 0.1-0.2 0-0.3-0.1-0.1-0.1-0.1-0.3 0-0.2 0.1-0.3t0.3-0.1z" style="fill:#ffffff"/>
        <path id="path848" d="m18 132q0.2 0 0.3 0.1t0.1 0.3q0 0.1-0.1 0.3-0.1 0.1-0.3 0.1-0.2 0-0.3-0.1-0.1-0.1-0.1-0.3 0-0.2 0.1-0.3t0.3-0.1z" style="fill:#ffffff"/>
        <path id="path844" d="m17 130h-0.4v-0.02q0-0.07 0.03-0.1 0.03-0.07 0.08-0.1 0.05-0.05 0.1-0.08 0.06-0.03 0.1-0.03h3v-2h-0.6l0.2-0.4h4l0.2 0.4h-2v2h1v0.4h0.4v-0.4h3q0.2 0 0.3 0.1t0.1 0.3h-0.4v0.7h0.4v1h-1q-0.06-0.2-0.2-0.3-0.1-0.1-0.2-0.2-0.1-0.1-0.3-0.1-0.2-0.06-0.3-0.06t-0.3 0.06q-0.2 0.05-0.3 0.1-0.1 0.1-0.2 0.2-0.1 0.1-0.2 0.3h-4q-0.06-0.2-0.2-0.3-0.1-0.1-0.2-0.2-0.1-0.1-0.3-0.1-0.2-0.06-0.3-0.06-0.2 0-0.3 0.06-0.2 0.05-0.3 0.1-0.1 0.1-0.2 0.2-0.1 0.1-0.2 0.3h-0.8v-1h0.4z" style="fill:#0eff00"/>
        <path id="path846" d="m22 128h-2v2h2z" style="fill:#000000"/>
      </g>
    </g>
    <g id="g1643">
      <path id="path956-4" d="m134 127q0.2 0 0.4 0.01 0.2 0.01 0.4 0.04 0.2 0.03 0.4 0.07 0.2 0.04 0.3 0.1l0.3 0.1v4l-0.1-0.04q-0.2-0.09-0.4-0.2-0.2-0.07-0.4-0.1-0.2-0.05-0.4-0.07-0.2-0.02-0.5-0.02-0.1 0-0.3 9e-3 -0.1 9e-3 -0.3 0.03-0.2 0.02-0.3 0.05-0.1 0.03-0.3 0.08-0.2 0.06-0.3 0.1-0.2 0.04-0.4 0.07t-0.4 0.04q-0.2 0.01-0.4 0.01-0.2 0-0.4-0.01-0.2-0.02-0.4-0.07v2h-1v-5q-0.1-0.1-0.2-0.2-0.06-0.1-0.06-0.3 0-0.1 0.06-0.3 0.06-0.1 0.2-0.2 0.1-0.1 0.2-0.2 0.1-0.06 0.3-0.06 0.2 0 0.3 0.06 0.1 0.06 0.2 0.2 0.1 0.1 0.2 0.2 0.06 0.1 0.06 0.3 0 0.01-6e-3 0.03 0.3 0.05 0.7 0.05 0.2 0 0.4-0.02 0.2-0.02 0.4-0.06 0.2-0.03 0.3-0.09t0.3-0.1q0.3-0.08 0.6-0.1 0.3-0.04 0.6-0.04z" style="fill:#ffffff"/>
      <g id="race-flag" transform="matrix(.6 0 0 .6 60 50)" style="stroke-width:.5" aria-label="ðŸ">
        <path id="path956" d="m125 139q0.3 0 0.6 0.03 0.3 0.02 0.7 0.07 0.3 0.05 0.7 0.1 0.3 0.08 0.6 0.2l0.5 0.2v7l-0.2-0.07q-0.4-0.2-0.7-0.3-0.3-0.1-0.6-0.2-0.3-0.08-0.7-0.1-0.3-0.04-0.8-0.04-0.2 0-0.5 0.02-0.2 0.02-0.5 0.05-0.3 0.04-0.5 0.1-0.2 0.06-0.5 0.1-0.3 0.1-0.6 0.2-0.3 0.08-0.6 0.1-0.3 0.05-0.7 0.08-0.3 0.02-0.6 0.02-0.4 0-0.7-0.03-0.4-0.03-0.7-0.1v4h-2v-10q-0.2-0.2-0.3-0.4-0.1-0.2-0.1-0.5 0-0.3 0.1-0.5 0.1-0.2 0.3-0.4 0.2-0.2 0.4-0.3 0.2-0.1 0.5-0.1 0.3 0 0.5 0.1 0.2 0.1 0.4 0.3 0.2 0.2 0.3 0.4 0.1 0.2 0.1 0.5 0 0.03-0.01 0.06 0.5 0.09 1 0.09 0.3 0 0.7-0.03 0.3-0.03 0.7-0.1 0.3-0.06 0.6-0.2 0.3-0.1 0.5-0.2 0.5-0.1 1-0.2 0.5-0.07 1-0.07zm2 2q-0.2-0.07-0.4-0.1-0.2-0.05-0.4-0.09v-0.8l-0.06-0.02q-0.2-0.04-0.3-0.07-0.2-0.03-0.3-0.03v0.8q-0.2-0.02-0.4-0.03-0.2-0.02-0.4-0.02v-0.7q-0.2 0-0.4 0.01-0.2 0.01-0.4 0.02v0.8q-0.2 0.02-0.4 0.05-0.2 0.03-0.4 0.07v-0.8q-0.2 0.02-0.4 0.08-0.2 0.07-0.4 0.1v0.7q-0.2 0.08-0.4 0.1-0.2 0.05-0.4 0.09v-0.7q-0.2 0.01-0.3 0.06-0.2 0.05-0.3 0.05-0.02 0-0.03 0-0.02-5e-3 -0.03-5e-3v0.7q-0.2 0.02-0.4 0.03-0.2 0.01-0.4 0.01v-0.7q-0.2 0-0.4-0.02-0.2-0.02-0.4-0.02v0.7q-0.2-0.02-0.4-0.05-0.2-0.03-0.4-0.07v-0.7q-0.2-0.04-0.4-0.09-0.2-0.06-0.4-0.1 0.2-0.08 0.3-0.2 0.1-0.1 0.1-0.3 0-0.1-0.05-0.2-0.05-0.1-0.1-0.2-0.08-0.08-0.2-0.1-0.1-0.05-0.2-0.05-0.1 0-0.2 0.05-0.1 0.04-0.2 0.1-0.08 0.07-0.1 0.2-0.04 0.1-0.04 0.2 0 0.2 0.1 0.3 0.1 0.1 0.3 0.2v9h0.4v-4q0.2 0.07 0.4 0.1 0.2 0.05 0.4 0.09v-0.7q0.2 0.04 0.4 0.07 0.2 0.03 0.4 0.05v0.7q0.2 0.02 0.4 0.03 0.2 0.01 0.4 0.01v-0.7q0.4 0 0.7-0.03v0.7h0.02q0.2 0 0.4-0.04 0.2-0.04 0.4-0.08v-0.7q0.2-0.04 0.4-0.09t0.4-0.1v0.7q0.04-0.02 0.1-0.05 0.1-0.04 0.2-0.08t0.2-0.06q0.1-0.03 0.1-0.03 0 0 0-0.01 5e-3 -0.02 5e-3 -0.08 5e-3 -0.07 5e-3 -0.2 0-0.2 0-0.4 0.4-0.09 0.7-0.1v0.7q0.06 0 0.1-5e-3 0.06-0.01 0.1-0.02 0.1-0.01 0.2-0.02 0.1-5e-3 0.3-5e-3v-0.7q0.2 0 0.4 0.01 0.2 5e-3 0.4 0.03v0.7h0.04q0.2 0 0.4 0.04 0.2 0.04 0.4 0.08v-0.7q0.2 0.04 0.4 0.09 0.2 0.05 0.4 0.1v-0.8q-0.2-0.07-0.4-0.1-0.2-0.05-0.4-0.1v-0.7q0.2 0.04 0.4 0.1 0.2 0.05 0.4 0.1v-0.8q-0.2-0.07-0.4-0.1-0.2-0.05-0.4-0.09v-0.7q0.2 0.05 0.4 0.1 0.2 0.05 0.4 0.1zm-2 0.4q0.2 0 0.4 0.01 0.2 0.01 0.4 0.03v0.7q-0.2-0.02-0.4-0.03-0.2-0.01-0.4-0.01zm0 1q0.2 0 0.4 0.02 0.2 0.01 0.4 0.03v0.7q-0.2-0.02-0.4-0.03-0.2-0.01-0.4-0.01zm-7-0.4q0.2 0.07 0.4 0.1 0.2 0.04 0.4 0.08v0.7q-0.2-0.04-0.4-0.09-0.2-0.05-0.4-0.1zm0 1q0.2 0.07 0.4 0.1 0.2 0.05 0.4 0.09v0.7q-0.2-0.05-0.4-0.09-0.2-0.05-0.4-0.1zm2-0.4q0.2 0 0.4-0.01 0.2-0.01 0.4-0.03v0.7q-0.2 0.02-0.4 0.04-0.2 0.01-0.4 0.01zm-1-2q0.2 0.04 0.4 0.07 0.2 0.03 0.4 0.04v0.7q-0.2-0.02-0.4-0.05-0.2-0.03-0.4-0.07zm-0.7-1q0.2 0.07 0.4 0.1 0.2 0.05 0.4 0.09v0.7q-0.2-0.04-0.4-0.09-0.2-0.05-0.4-0.1zm4 2 0.07-0.02q0.2-0.04 0.3-0.08 0.2-0.04 0.3-0.1v0.7q-0.2 0.07-0.4 0.1-0.2 0.05-0.4 0.09zm2 0.2q0.2-0.02 0.4-0.03 0.2-0.01 0.4-0.01v0.7q-0.2 0-0.4 0.01-0.2 5e-3 -0.4 0.03zm-0.7-0.6q0.2-0.05 0.4-0.07 0.2-0.03 0.4-0.05v0.7q-0.2 0.03-0.4 0.05-0.2 0.03-0.4 0.07zm0-1q0.2-0.03 0.4-0.06 0.2-0.03 0.4-0.05v0.7q-0.2 0.02-0.4 0.05-0.2 0.03-0.4 0.07zm-4 2q0.2 0.04 0.4 0.07 0.2 0.03 0.4 0.05v0.7q-0.2-0.01-0.4-0.04-0.2-0.03-0.4-0.07zm1-1q0.2 0 0.4-0.01 0.2-0.01 0.4-0.03v0.7q-0.2 0.02-0.4 0.03-0.2 0.01-0.4 0.01zm4-1q0.2-0.02 0.4-0.03 0.2-0.01 0.4-0.02v0.7q-0.4 0-0.7 0.03zm-2 1q0.2-0.04 0.4-0.09 0.2-0.05 0.4-0.1v0.7q-0.2 0.07-0.4 0.1-0.2 0.05-0.4 0.08zm-0.7 0.9q0.2-0.02 0.4-0.05 0.2-0.03 0.4-0.07v0.7q-0.2 0.04-0.4 0.07-0.2 0.02-0.4 0.05zm-1 0q0.2 0.02 0.4 0.03 0.2 0.01 0.4 0.01v0.7q-0.2 0-0.4-0.01-0.2-0.01-0.4-0.03zm0-1q0.2 0.02 0.4 0.04 0.2 0.01 0.4 0.01v0.7q-0.4 0-0.7-0.05zm3-0.3q0.2-0.08 0.4-0.1 0.2-0.05 0.4-0.09v0.7q-0.2 0.05-0.4 0.1-0.2 0.05-0.4 0.1zm-1 0.3q0.4-0.03 0.7-0.1v0.7q-0.2 0.04-0.4 0.07-0.2 0.03-0.4 0.04zm1 1q0.2-0.07 0.4-0.1 0.2-0.05 0.4-0.09v0.7q-0.2 0.04-0.4 0.09-0.2 0.05-0.4 0.1zm-3 2q0.2 0.02 0.4 0.03 0.2 0.01 0.4 0.01v0.7q-0.2 0-0.4-0.01-0.2-0.01-0.4-0.03zm1 0q0.2-0.02 0.4-0.05 0.2-0.03 0.4-0.07v0.7q-0.2 0.04-0.4 0.07-0.2 0.03-0.4 0.04zm3-2q0.2-0.02 0.4-0.03 0.2-0.01 0.4-0.01v0.7q-0.2 0-0.4 0.01-0.2 5e-3 -0.4 0.03zm-1 2q0.2-0.07 0.3-0.1 0.2-0.05 0.3-0.09l0.07-0.02v0.7q-0.2 0.04-0.4 0.09-0.2 0.05-0.4 0.1zm3-3q0.2 0.03 0.4 0.05 0.2 0.03 0.4 0.07v0.7q-0.4-0.07-0.7-0.1zm0 3q0.2 0.02 0.4 0.05 0.2 0.03 0.4 0.06v0.7q-0.2-0.04-0.4-0.06-0.2-0.03-0.4-0.05zm0-1q0.2 0.02 0.4 0.05 0.2 0.03 0.4 0.07v0.7q-0.2-0.04-0.4-0.07-0.2-0.03-0.4-0.05z" style="stroke-width:.5"/>
      </g>
    </g>
    <text id="text961" x="131.16652" y="139.14067" style="font-family:sans-serif;font-size:11px;line-height:1.25;stroke-width:.3;text-align:center;text-anchor:middle" xml:space="preserve"><tspan id="tspan959" x="131.16652" y="139.14067" style="stroke-width:.3"/></text>
  </g>
</svg>
