<?xml version="1.0" encoding="UTF-8" standalone="no"?>
<svg
   xmlns:dc="http://purl.org/dc/elements/1.1/"
   xmlns:cc="http://creativecommons.org/ns#"
   xmlns:rdf="http://www.w3.org/1999/02/22-rdf-syntax-ns#"
   xmlns:svg="http://www.w3.org/2000/svg"
   xmlns="http://www.w3.org/2000/svg"
   xmlns:sodipodi="http://sodipodi.sourceforge.net/DTD/sodipodi-0.dtd"
   xmlns:inkscape="http://www.inkscape.org/namespaces/inkscape"
   width="499.99997"
   height="30.000015"
   viewBox="0 0 132.29164 7.9375038"
   version="1.1"
   id="svg8"
   sodipodi:docname="flag1.svg"
   inkscape:version="1.0.1 (3bc2e813f5, 2020-09-07)">
  <sodipodi:namedview
     pagecolor="#ffffff"
     bordercolor="#666666"
     borderopacity="1"
     objecttolerance="10"
     gridtolerance="10"
     guidetolerance="10"
     inkscape:pageopacity="0"
     inkscape:pageshadow="2"
     inkscape:window-width="2635"
     inkscape:window-height="1444"
     id="namedview851"
     showgrid="false"
     fit-margin-top="0"
     fit-margin-left="0"
     fit-margin-right="0"
     fit-margin-bottom="0"
     units="px"
     inkscape:zoom="3.1795176"
     inkscape:cx="268.3192"
     inkscape:cy="15.000008"
     inkscape:window-x="3359"
     inkscape:window-y="220"
     inkscape:window-maximized="0"
     inkscape:current-layer="svg8" />
  <defs
     id="defs2" />
  <metadata
     id="metadata5">
    <rdf:RDF>
      <cc:Work
         rdf:about="">
        <dc:format>image/svg+xml</dc:format>
        <dc:type
           rdf:resource="http://purl.org/dc/dcmitype/StillImage" />
        <dc:title></dc:title>
      </cc:Work>
    </rdf:RDF>
  </metadata>
  <path
     style="fill:none;stroke:#616161;stroke-width:0.529167;stroke-linecap:butt;stroke-linejoin:miter;stroke-miterlimit:4;stroke-dasharray:2.11667, 1.05833;stroke-dashoffset:0;stroke-opacity:1"
     d="M 0,7.6729199 H 132.29165"
     id="race-road" />
  <g
     id="race-car-picture"
     style="stroke:none"
     transform="translate(-15.555748,-127.03002)">
    <g
       id="g946">
      <path
         style="font-size:10.5833px;line-height:1.25;font-family:sans-serif;text-align:center;text-anchor:middle;fill:#000000;fill-opacity:1;stroke:none;stroke-width:0;stroke-miterlimit:4;stroke-dasharray:none;stroke-opacity:1"
         d="m 17.326153,129.23482 h -0.652256 q -0.232948,0 -0.434837,0.087 -0.201888,0.087 -0.35201,0.24044 -0.155299,0.14835 -0.243302,0.34787 -0.088,0.19951 -0.088,0.42971 v 2.57318 h 1.55299 q 0.06212,0.16369 0.170828,0.2967 0.103533,0.13813 0.238125,0.23532 0.134592,0.0972 0.300244,0.14835 0.165653,0.0512 0.341658,0.0512 0.362365,0 0.647079,-0.19951 0.279538,-0.19439 0.403777,-0.53202 h 4.224132 q 0.06212,0.16369 0.170828,0.2967 0.103533,0.13813 0.238125,0.23532 0.134592,0.0972 0.300244,0.14835 0.165652,0.0512 0.341658,0.0512 0.362365,0 0.647079,-0.19951 0.279538,-0.19439 0.403777,-0.53202 h 1.925707 v -2.57318 q 0,-0.2302 -0.088,-0.42971 -0.088,-0.19952 -0.238124,-0.34787 -0.1553,-0.15347 -0.357189,-0.24044 -0.201888,-0.087 -0.434836,-0.087 h -1.39769 q -0.279538,-0.55761 -0.553901,-1.10497 -0.279537,-0.54738 -0.564252,-1.09987 h -5.383696 q -0.284715,0.55249 -0.559076,1.09987 -0.279538,0.54736 -0.559076,1.10497 z"
         id="path839" />
      <path
         style="font-size:10.5833px;line-height:1.25;font-family:sans-serif;text-align:center;text-anchor:middle;fill:#ffffff;fill-opacity:1;stroke:none;stroke-width:0;stroke-miterlimit:4;stroke-dasharray:none;stroke-opacity:1"
         d="m 24.485433,132.22861 q 0.1553,0 0.264009,0.10852 0.108709,0.10852 0.108709,0.26355 0,0.14986 -0.108709,0.25838 -0.113886,0.11369 -0.264009,0.11369 -0.150122,0 -0.258832,-0.11369 -0.113885,-0.10852 -0.113885,-0.25838 0,-0.15503 0.108709,-0.26355 0.108709,-0.10852 0.264008,-0.10852 z"
         id="path850" />
      <path
         style="font-size:10.5833px;line-height:1.25;font-family:sans-serif;text-align:center;text-anchor:middle;fill:#ffffff;fill-opacity:1;stroke:none;stroke-width:0;stroke-miterlimit:4;stroke-dasharray:none;stroke-opacity:1"
         d="m 18.15959,132.22861 q 0.1553,0 0.264009,0.10852 0.108709,0.10852 0.108709,0.26355 0,0.14986 -0.108709,0.25838 -0.113886,0.11369 -0.264009,0.11369 -0.150122,0 -0.258832,-0.11369 -0.113885,-0.10852 -0.113885,-0.25838 0,-0.15503 0.108709,-0.26355 0.108709,-0.10852 0.264008,-0.10852 z"
         id="path848" />
      <path
         style="font-size:10.5833px;line-height:1.25;font-family:sans-serif;text-align:center;text-anchor:middle;fill:#0eff00;fill-opacity:1;stroke:none;stroke-width:0;stroke-miterlimit:4;stroke-dasharray:none;stroke-opacity:1"
         d="M 16.673897,130.37343 H 16.30118 v -0.0207 q 0,-0.0672 0.03106,-0.12919 0.03105,-0.0672 0.08282,-0.11369 0.05177,-0.0517 0.119062,-0.0775 0.06212,-0.031 0.129416,-0.031 h 2.614198 v -1.86034 h -0.559075 l 0.186358,-0.37207 h 4.462256 l 0.186359,0.37207 h -1.672053 v 1.86034 h 1.485694 v 0.37207 H 23.74 v -0.37207 h 2.603846 q 0.155299,0 0.264008,0.10852 0.108709,0.10852 0.108709,0.26355 h -0.372717 v 0.73897 h 0.372717 v 1.11621 h -1.180272 q -0.05694,-0.16536 -0.160475,-0.30489 -0.10871,-0.13436 -0.248479,-0.23254 -0.139768,-0.0982 -0.300244,-0.14986 -0.165652,-0.0568 -0.341658,-0.0568 -0.176006,0 -0.336481,0.0568 -0.165652,0.0517 -0.305421,0.14986 -0.139769,0.0982 -0.243301,0.23254 -0.10871,0.13953 -0.165652,0.30489 h -4.218955 q -0.06212,-0.16536 -0.165652,-0.30489 -0.10871,-0.13436 -0.243302,-0.23254 -0.139769,-0.0982 -0.300244,-0.14986 -0.165652,-0.0568 -0.346835,-0.0568 -0.176005,0 -0.336481,0.0568 -0.165652,0.0517 -0.305421,0.14986 -0.139769,0.0982 -0.243301,0.23254 -0.10871,0.13953 -0.165652,0.30489 h -0.807555 v -1.11621 h 0.372717 z"
         id="path844" />
      <path
         style="font-size:10.5833px;line-height:1.25;font-family:sans-serif;text-align:center;text-anchor:middle;fill:#000000;fill-opacity:1;stroke:none;stroke-width:0;stroke-miterlimit:4;stroke-dasharray:none;stroke-opacity:1"
         d="m 21.50887,128.14102 h -1.85841 v 1.86034 h 1.85841 z"
         id="path846" />
    </g>
  </g>
  <g
     id="g1643"
     transform="translate(-17.67242,-127.03002)">
    <path
       style="font-style:normal;font-variant:normal;font-weight:normal;font-stretch:normal;font-size:10.5833px;line-height:1.25;font-family:'Bookman Old Style';-inkscape-font-specification:'Bookman Old Style';text-align:center;text-anchor:middle;fill:#ffffff;fill-opacity:1;stroke:none;stroke-width:0.264583"
       d="m 133.64647,127.44109 q 0.16551,0 0.36168,0.0143 0.19617,0.0115 0.3954,0.0402 0.20231,0.0288 0.39234,0.0747 0.19004,0.0431 0.3433,0.10349 l 0.2728,0.10924 v 3.7888 l -0.10422,-0.0403 q -0.22988,-0.0891 -0.41686,-0.15523 -0.18697,-0.069 -0.37395,-0.11499 -0.18697,-0.046 -0.3954,-0.069 -0.20536,-0.023 -0.47509,-0.023 -0.13793,0 -0.28813,0.009 -0.14712,0.009 -0.29732,0.0288 -0.15019,0.0201 -0.29425,0.0546 -0.14406,0.0316 -0.2728,0.0805 -0.16245,0.0632 -0.34943,0.10924 -0.18697,0.0431 -0.38314,0.0719 -0.19617,0.0288 -0.39234,0.0431 -0.1931,0.0115 -0.36781,0.0115 -0.22069,0 -0.44445,-0.0143 -0.22069,-0.0173 -0.43525,-0.0661 v 2.14736 h -1.10038 v -5.38998 q -0.10729,-0.10061 -0.16552,-0.22997 -0.0582,-0.13224 -0.0582,-0.27597 0,-0.14948 0.0613,-0.27884 0.0613,-0.13224 0.16552,-0.22997 0.10727,-0.0977 0.24521,-0.15236 0.14099,-0.0575 0.30038,-0.0575 0.16552,0 0.30652,0.0604 0.14099,0.0575 0.24521,0.1581 0.10421,0.10061 0.16245,0.23572 0.0613,0.13224 0.0613,0.2846 0,0.0143 -0.006,0.0316 0.3249,0.0517 0.66207,0.0517 0.19923,0 0.39847,-0.0173 0.19923,-0.0172 0.39233,-0.0575 0.16858,-0.0316 0.32797,-0.0862 0.15939,-0.0546 0.32491,-0.10061 0.29118,-0.0776 0.59464,-0.11211 0.30344,-0.0374 0.60689,-0.0374 z"
       id="path956-4" />
    <g
       aria-label="ðŸ"
       id="race-flag"
       style="font-style:normal;font-variant:normal;font-weight:normal;font-stretch:normal;font-size:10.5833px;line-height:1.25;font-family:Arial;-inkscape-font-specification:Arial;text-align:center;text-anchor:middle;stroke-width:0.460612"
       transform="matrix(0.59314308,0,0,0.55628161,59.728503,50.067124)">
      <path
         d="m 124.62081,139.09136 q 0.27905,0 0.60978,0.0258 0.33073,0.0207 0.66662,0.0723 0.34107,0.0517 0.66146,0.13436 0.32039,0.0775 0.57877,0.18604 l 0.45992,0.19636 v 6.81094 l -0.1757,-0.0724 q -0.38757,-0.1602 -0.7028,-0.27905 -0.31522,-0.12402 -0.63045,-0.20671 -0.31522,-0.0827 -0.66662,-0.12402 -0.34623,-0.0413 -0.80098,-0.0413 -0.23254,0 -0.48576,0.0155 -0.24804,0.0155 -0.50126,0.0517 -0.25321,0.0362 -0.49609,0.0982 -0.24288,0.0569 -0.45992,0.1447 -0.27388,0.11368 -0.58911,0.19637 -0.31522,0.0775 -0.64595,0.12919 -0.33073,0.0517 -0.66146,0.0775 -0.32556,0.0207 -0.62011,0.0207 -0.37207,0 -0.74931,-0.0258 -0.37207,-0.031 -0.7338,-0.11885 v 3.86022 h -1.85518 v -9.6893 q -0.18087,-0.18087 -0.27905,-0.41341 -0.0982,-0.23772 -0.0982,-0.4961 0,-0.26871 0.10336,-0.50126 0.10335,-0.23771 0.27905,-0.41341 0.18086,-0.1757 0.41341,-0.27388 0.23771,-0.10335 0.50642,-0.10335 0.27906,0 0.51677,0.10852 0.23771,0.10335 0.41341,0.28422 0.1757,0.18086 0.27388,0.42374 0.10335,0.23771 0.10335,0.5116 0,0.0258 -0.0103,0.0568 0.54777,0.093 1.11621,0.093 0.33589,0 0.67179,-0.031 0.33589,-0.031 0.66145,-0.10335 0.28422,-0.0568 0.55294,-0.15503 0.26872,-0.0982 0.54777,-0.18087 0.49092,-0.13952 1.00252,-0.20153 0.51159,-0.0672 1.02319,-0.0672 z m 2.24792,1.85001 q -0.18087,-0.0672 -0.37207,-0.11369 -0.18604,-0.0517 -0.37724,-0.093 v -0.75447 l -0.0568,-0.0155 q -0.17054,-0.0413 -0.34623,-0.0724 -0.17054,-0.031 -0.34624,-0.031 v 0.75448 q -0.18603,-0.0207 -0.37206,-0.031 -0.18604,-0.0155 -0.37207,-0.0155 v -0.73897 q -0.18604,0 -0.37207,0.0103 -0.18087,0.0103 -0.3669,0.0207 v 0.75448 q -0.19121,0.0207 -0.37724,0.0465 -0.18087,0.0258 -0.36174,0.0723 v -0.75964 q -0.1912,0.0155 -0.38757,0.0827 -0.1912,0.0672 -0.36173,0.13953 v 0.74414 q -0.18087,0.0775 -0.37207,0.12919 -0.18603,0.0517 -0.37724,0.093 v -0.73381 q -0.16536,0.0103 -0.34106,0.062 -0.1757,0.0465 -0.34106,0.0465 -0.0155,0 -0.031,0 -0.0155,-0.005 -0.031,-0.005 v 0.74413 q -0.18086,0.0207 -0.3669,0.031 -0.18603,0.0103 -0.37207,0.0103 v -0.7493 q -0.1912,0 -0.37723,-0.0155 -0.18604,-0.0207 -0.37207,-0.0207 v 0.74413 q -0.18604,-0.0207 -0.37207,-0.0465 -0.18604,-0.031 -0.3669,-0.0672 v -0.73381 q -0.1912,-0.0413 -0.37724,-0.093 -0.18603,-0.0568 -0.3669,-0.13953 0.16536,-0.0775 0.27388,-0.22221 0.10852,-0.14986 0.10852,-0.33073 0,-0.11368 -0.0465,-0.21187 -0.0465,-0.10335 -0.12402,-0.1757 -0.0775,-0.0775 -0.18086,-0.11885 -0.10336,-0.0465 -0.21705,-0.0465 -0.11368,0 -0.21704,0.0465 -0.0982,0.0413 -0.17569,0.11885 -0.0775,0.0724 -0.12403,0.1757 -0.0413,0.0982 -0.0413,0.21187 0,0.18087 0.0982,0.32556 0.0982,0.13953 0.26354,0.21188 v 9.3224 h 0.38241 v -4.08243 q 0.18087,0.0724 0.3669,0.12402 0.18604,0.0517 0.37724,0.093 v -0.74414 q 0.18086,0.0362 0.3669,0.0672 0.18603,0.0258 0.37207,0.0517 v 0.74414 q 0.1912,0.0155 0.37723,0.0258 0.18604,0.0103 0.37207,0.0103 v -0.74931 q 0.36691,0 0.73897,-0.031 v 0.74414 h 0.0207 q 0.17569,0 0.36173,-0.0413 0.1912,-0.0413 0.36173,-0.0775 v -0.74414 q 0.19121,-0.0413 0.37724,-0.093 0.18603,-0.0517 0.3669,-0.12402 v 0.74414 q 0.0413,-0.0155 0.14469,-0.0517 0.10852,-0.0413 0.22738,-0.0775 0.11886,-0.0362 0.22221,-0.062 0.10852,-0.031 0.14986,-0.031 0,0 0,-0.0103 0.005,-0.0155 0.005,-0.0827 0.005,-0.0723 0.005,-0.2222 0,-0.15503 0,-0.43408 0.36691,-0.0879 0.73381,-0.10852 v 0.74413 q 0.0568,0 0.11885,-0.005 0.062,-0.0103 0.11886,-0.0155 0.12402,-0.0103 0.24804,-0.0155 0.1292,-0.005 0.25839,-0.005 v -0.74413 q 0.18603,0 0.37207,0.0103 0.18603,0.005 0.37206,0.031 v 0.74413 h 0.0414 q 0.17053,0 0.35139,0.0362 0.18604,0.0362 0.3514,0.0775 v -0.74414 q 0.19637,0.0413 0.38241,0.0879 0.1912,0.0465 0.3669,0.13436 v -0.75964 q -0.18087,-0.0672 -0.3669,-0.11885 -0.18604,-0.0517 -0.37724,-0.0982 v -0.7338 q 0.1912,0.0413 0.37724,0.0982 0.18603,0.0517 0.3669,0.12403 v -0.75965 q -0.18087,-0.0672 -0.3669,-0.11368 -0.18604,-0.0517 -0.37724,-0.093 v -0.74414 q 0.1912,0.0465 0.37724,0.0982 0.18603,0.0517 0.3669,0.12919 z m -2.24275,0.38757 q 0.18603,0 0.37207,0.0103 0.18603,0.0103 0.37206,0.031 v 0.7338 q -0.18603,-0.0207 -0.37206,-0.031 -0.18604,-0.0103 -0.37207,-0.0103 z m 0,1.48311 q 0.18603,0 0.37207,0.0155 0.18603,0.0103 0.37206,0.0258 v 0.72864 q -0.18603,-0.0155 -0.37206,-0.0258 -0.18604,-0.0103 -0.37207,-0.0103 z m -6.69208,-0.36174 q 0.18087,0.0724 0.3669,0.11886 0.18604,0.0413 0.37207,0.0827 v 0.74414 q -0.18603,-0.0413 -0.37207,-0.093 -0.18603,-0.0517 -0.3669,-0.11885 z m 0,1.48311 q 0.18087,0.0724 0.3669,0.11886 0.18604,0.0465 0.37207,0.0879 v 0.74414 q -0.18603,-0.0465 -0.37724,-0.093 -0.18603,-0.0517 -0.36173,-0.13953 z m 2.23241,-0.37723 q 0.18604,0 0.36691,-0.0103 0.18603,-0.0103 0.37206,-0.0258 v 0.72864 q -0.18086,0.0207 -0.3669,0.0362 -0.18603,0.0103 -0.37207,0.0103 z m -1.48827,-1.63814 q 0.18086,0.0362 0.3669,0.0672 0.18603,0.0258 0.37207,0.0413 v 0.73897 q -0.18604,-0.0207 -0.37207,-0.0517 -0.18604,-0.031 -0.3669,-0.0672 z m -0.74414,-0.95601 q 0.18087,0.0724 0.3669,0.12402 0.18604,0.0465 0.37207,0.0879 v 0.7338 q -0.18603,-0.0413 -0.37207,-0.0879 -0.18603,-0.0517 -0.3669,-0.12919 z m 3.71552,2.43912 0.0724,-0.0155 q 0.17053,-0.0413 0.3359,-0.0827 0.17053,-0.0413 0.33589,-0.10852 v 0.72347 q -0.18087,0.0724 -0.3669,0.12402 -0.18603,0.0465 -0.37724,0.0879 z m 2.23759,0.19637 q 0.18086,-0.0207 0.3669,-0.031 0.18603,-0.0103 0.3669,-0.0103 v 0.73897 q -0.18087,0 -0.3669,0.0103 -0.18604,0.005 -0.3669,0.0258 z m -0.73898,-0.63045 q 0.18087,-0.0465 0.36174,-0.0672 0.18603,-0.0258 0.37207,-0.0465 v 0.72864 q -0.18087,0.0258 -0.3669,0.0517 -0.18604,0.0258 -0.36691,0.0672 z m 0,-1.48828 q 0.18087,-0.031 0.36174,-0.062 0.18603,-0.031 0.37207,-0.0465 v 0.7338 q -0.18604,0.0155 -0.37207,0.0465 -0.18087,0.031 -0.36174,0.0672 z m -4.46999,1.92236 q 0.18086,0.0413 0.3669,0.0723 0.18603,0.0258 0.37207,0.0465 v 0.72347 q -0.18604,-0.0103 -0.37207,-0.0413 -0.18604,-0.031 -0.3669,-0.0672 z m 1.48827,-1.32808 q 0.18604,0 0.36691,-0.0103 0.18603,-0.0103 0.37206,-0.0258 v 0.72864 q -0.18603,0.0155 -0.37206,0.0258 -0.18087,0.0103 -0.36691,0.0103 z m 3.7207,-1.45211 q 0.18086,-0.0207 0.3669,-0.0258 0.18603,-0.0103 0.3669,-0.0155 v 0.73897 q -0.37207,0 -0.7338,0.031 z m -2.23759,1.29708 q 0.19121,-0.0413 0.37724,-0.0879 0.18603,-0.0517 0.3669,-0.12402 v 0.72346 q -0.18087,0.0724 -0.3669,0.12403 -0.18603,0.0465 -0.37724,0.0827 z m -0.7338,0.85266 q 0.18087,-0.0155 0.36173,-0.0465 0.18604,-0.031 0.36691,-0.0672 v 0.73897 q -0.18087,0.0413 -0.36691,0.0672 -0.18086,0.0207 -0.36173,0.0465 z m -1.48828,0 q 0.18087,0.0155 0.36174,0.031 0.18603,0.0103 0.3669,0.0103 v 0.7338 q -0.18087,0 -0.3669,-0.0103 -0.18087,-0.0103 -0.36174,-0.0258 z m 0,-1.48828 q 0.18087,0.0207 0.36174,0.0362 0.18603,0.0103 0.3669,0.0103 v 0.7338 q -0.3669,0 -0.72864,-0.0465 z m 2.97656,-0.32556 q 0.1757,-0.0775 0.35656,-0.12402 0.18604,-0.0517 0.37207,-0.093 v 0.72864 q -0.18603,0.0465 -0.37207,0.0982 -0.18086,0.0517 -0.35656,0.12402 z m -1.48828,0.32556 q 0.36173,-0.031 0.72864,-0.10852 v 0.7338 q -0.18087,0.0362 -0.36691,0.0672 -0.18086,0.031 -0.36173,0.0413 z m 1.48828,1.16272 q 0.1757,-0.0724 0.35656,-0.12403 0.18604,-0.0517 0.37207,-0.093 v 0.7338 q -0.18603,0.0413 -0.3669,0.093 -0.18087,0.0465 -0.36173,0.11885 z m -2.97656,1.819 q 0.18087,0.0155 0.36174,0.0258 0.18603,0.0103 0.3669,0.0103 v 0.7338 q -0.18087,0 -0.3669,-0.0103 -0.18087,-0.0103 -0.36174,-0.031 z m 1.48828,0 q 0.18087,-0.0207 0.36173,-0.0465 0.18604,-0.031 0.36691,-0.0723 v 0.73897 q -0.18087,0.0362 -0.36691,0.0672 -0.18086,0.0258 -0.36173,0.0413 z m 2.97139,-2.14973 q 0.18086,-0.0207 0.3669,-0.031 0.18603,-0.0103 0.3669,-0.0103 v 0.72863 q -0.18087,0 -0.3669,0.0103 -0.18604,0.005 -0.3669,0.0258 z m -1.48311,1.819 q 0.16019,-0.0723 0.32556,-0.11885 0.16536,-0.0465 0.33589,-0.0879 l 0.0672,-0.0155 v 0.72863 q -0.18603,0.0413 -0.3669,0.093 -0.18087,0.0465 -0.36173,0.11885 z m 2.97655,-3.31245 q 0.18087,0.0258 0.36173,0.0517 0.18087,0.0258 0.36174,0.0672 v 0.72347 q -0.3514,-0.0672 -0.72347,-0.10852 z m 0,2.97656 q 0.18087,0.0207 0.36173,0.0517 0.18087,0.0258 0.36174,0.062 v 0.72863 q -0.18087,-0.0413 -0.36174,-0.062 -0.18086,-0.0258 -0.36173,-0.0465 z m 0,-1.48311 q 0.18087,0.0155 0.36173,0.0465 0.18087,0.031 0.36174,0.0672 v 0.72863 q -0.18087,-0.0413 -0.36174,-0.0672 -0.18086,-0.031 -0.36173,-0.0517 z"
         style="font-style:normal;font-variant:normal;font-weight:normal;font-stretch:normal;font-family:'Bookman Old Style';-inkscape-font-specification:'Bookman Old Style';stroke-width:0.460612"
         id="path956" />
    </g>
  </g>
  <text
     xml:space="preserve"
     style="font-size:10.5833px;line-height:1.25;font-family:sans-serif;text-align:center;text-anchor:middle;stroke-width:0.264583"
     x="115.61077"
     y="12.110651"
     id="text961"><tspan
       id="tspan959"
       x="115.61077"
       y="12.110651"
       style="stroke-width:0.264583" /></text>
</svg>
