<svg width="400" height="30" viewBox="0 0 400 30" fill="none" xmlns="http://www.w3.org/2000/svg">
<g id="track-svg-plainSVG-new-road-size 1" clip-path="url(#clip0_205_94)">
<path id="race-road" d="M0 29H400" stroke="#616161" stroke-width="2" stroke-dasharray="8 4"/>
<g id="race-car-picture">
<g id="g946">
<path id="path839" d="M47.6913 8.33321H45.2261C44.6391 8.33321 44.0913 8.44284 43.5826 8.66205C43.0739 8.88127 42.6304 9.18416 42.2522 9.57078C41.8609 9.94457 41.5543 10.3828 41.3326 10.8856C41.1109 11.3883 41 11.9297 41 12.5097V22.2351H46.8696C47.0261 22.6476 47.2413 23.0214 47.5152 23.3565C47.7761 23.7045 48.0761 24.001 48.4152 24.2459C48.7543 24.4908 49.1326 24.6777 49.55 24.8066C49.9674 24.9356 50.3978 25.0001 50.8413 25.0001C51.7544 25.0001 52.5696 24.7488 53.287 24.2461C53.9913 23.7563 54.5 23.086 54.813 22.2353H70.7783C70.9348 22.6477 71.15 23.0215 71.4239 23.3567C71.6848 23.7047 71.9848 24.0012 72.3239 24.2461C72.663 24.491 73.0413 24.6779 73.4587 24.8068C73.8761 24.9358 74.3065 25.0002 74.75 25.0002C75.663 25.0002 76.4783 24.7489 77.1957 24.2462C77.9 23.7564 78.4087 23.0862 78.7217 22.2354H86V12.51C86 11.93 85.8891 11.3886 85.6674 10.8859C85.4457 10.3832 85.1457 9.94492 84.7674 9.57112C84.3761 9.18443 83.9261 8.88148 83.4174 8.66234C82.9087 8.44313 82.3609 8.3335 81.7739 8.3335H76.4913C75.787 6.92849 75.0891 5.53642 74.3978 4.15724C73.6935 2.77801 72.9826 1.39235 72.2652 0.000244141H51.9174C51.2 1.39235 50.4957 2.77801 49.8044 4.15724C49.1 5.53642 48.3956 6.92821 47.6913 8.33321Z" fill="black"/>
<path id="path850" d="M74.75 19.6483C75.1413 19.6483 75.4739 19.785 75.7478 20.0584C76.0217 20.3318 76.1587 20.6639 76.1587 21.0545C76.1587 21.4321 76.0217 21.7576 75.7478 22.0311C75.4609 22.3175 75.1283 22.4608 74.75 22.4608C74.3717 22.4608 74.0457 22.3175 73.7717 22.0311C73.4848 21.7576 73.3413 21.4321 73.3413 21.0545C73.3413 20.6639 73.4783 20.3318 73.7522 20.0584C74.0261 19.785 74.3587 19.6483 74.75 19.6483Z" fill="white"/>
<path id="path848" d="M50.8413 19.6483C51.2326 19.6483 51.5652 19.785 51.8391 20.0584C52.1131 20.3318 52.25 20.6639 52.25 21.0545C52.25 21.4321 52.1131 21.7576 51.8391 22.0311C51.5522 22.3175 51.2196 22.4608 50.8413 22.4608C50.4631 22.4608 50.137 22.3175 49.8631 22.0311C49.5761 21.7576 49.4326 21.4321 49.4326 21.0545C49.4326 20.6639 49.5696 20.3318 49.8435 20.0584C50.1174 19.785 50.45 19.6483 50.8413 19.6483Z" fill="white"/>
<path id="path844" d="M45.2261 12.6365H43.8174V12.5583C43.8174 12.389 43.8565 12.2262 43.9348 12.07C44.013 11.9007 44.1174 11.7575 44.2478 11.6403C44.3782 11.5101 44.5282 11.4124 44.6978 11.3474C44.8543 11.2693 45.0174 11.2302 45.1869 11.2302H55.0674V4.19901H52.9543L53.6587 2.79279H70.5239L71.2282 4.19901H64.9087V11.2302H70.5239V12.6365H71.9326V11.2302H81.7739C82.1652 11.2302 82.4978 11.3669 82.7717 11.6404C83.0457 11.9138 83.1826 12.2459 83.1826 12.6365H81.7739V15.4295H83.1826V19.6483H78.7217C78.5783 19.2316 78.3761 18.8474 78.1152 18.4959C77.8413 18.1573 77.5283 17.8644 77.1761 17.617C76.8239 17.3696 76.4457 17.1807 76.0413 17.0506C75.6239 16.9075 75.1935 16.8359 74.75 16.8359C74.3065 16.8359 73.8826 16.9075 73.4783 17.0506C73.0609 17.1808 72.6761 17.3697 72.3239 17.617C71.9717 17.8645 71.6652 18.1574 71.4043 18.4959C71.1304 18.8474 70.9217 19.2316 70.7783 19.6483H54.8326C54.6761 19.2316 54.4674 18.8474 54.2065 18.4959C53.9326 18.1573 53.6261 17.8644 53.287 17.617C52.9348 17.3696 52.5565 17.1807 52.1522 17.0506C51.7348 16.9075 51.2978 16.8359 50.8413 16.8359C50.3978 16.8359 49.9739 16.9075 49.5696 17.0506C49.1522 17.1808 48.7674 17.3697 48.4152 17.617C48.063 17.8645 47.7565 18.1574 47.4957 18.4959C47.2217 18.8474 47.013 19.2316 46.8696 19.6483H43.8174V15.4295H45.2261L45.2261 12.6365Z" fill="#0EFF00"/>
<path id="path846" d="M63.5 4.1991H56.4761V11.2303H63.5V4.1991Z" fill="black"/>
</g>
</g>
<g id="g1643">
<path id="path956-4" d="M280.327 1.55363C280.744 1.55363 281.2 1.57163 281.694 1.60767C282.188 1.63664 282.686 1.68729 283.188 1.7596C283.698 1.83217 284.192 1.92628 284.671 2.04193C285.15 2.15053 285.583 2.28092 285.969 2.43308L287 2.84595V17.1658L286.606 17.0135C286.027 16.789 285.502 16.5935 285.03 16.4268C284.559 16.253 284.088 16.1081 283.617 15.9922C283.146 15.8763 282.648 15.7894 282.123 15.7314C281.605 15.6735 281.007 15.6445 280.327 15.6445C279.98 15.6445 279.616 15.6558 279.238 15.6785C278.867 15.7012 278.493 15.7375 278.114 15.7874C277.736 15.838 277.365 15.9068 277.002 15.9937C276.639 16.0733 276.296 16.1747 275.971 16.2979C275.562 16.4572 275.122 16.5949 274.65 16.7109C274.179 16.8195 273.697 16.91 273.202 16.9826C272.708 17.0552 272.214 17.1094 271.72 17.1455C271.233 17.1744 270.77 17.189 270.329 17.189C269.773 17.189 269.213 17.1709 268.65 17.1349C268.093 17.0913 267.545 17.008 267.005 16.8851V25.0011H262.846V4.62948C262.575 4.37598 262.367 4.08627 262.22 3.76032C262.073 3.42712 262 3.07944 262 2.71728C262 2.34064 262.077 1.98935 262.232 1.66341C262.386 1.3302 262.595 1.04049 262.857 0.794246C263.128 0.548073 263.437 0.356098 263.784 0.218372C264.139 0.0734906 264.518 0.00106812 264.919 0.00106812C265.336 0.00106812 265.723 0.0771698 266.078 0.229359C266.433 0.374241 266.742 0.573408 267.005 0.826888C267.267 1.08039 267.472 1.37735 267.619 1.71779C267.773 2.05099 267.85 2.40954 267.85 2.79344C267.85 2.82947 267.843 2.86929 267.828 2.91288C268.646 3.04314 269.48 3.10829 270.33 3.10829C270.832 3.10829 271.334 3.08649 271.836 3.0429C272.338 2.99956 272.832 2.92713 273.319 2.82559C273.744 2.74597 274.157 2.63735 274.558 2.49978C274.96 2.3622 275.369 2.23546 275.786 2.11953C276.52 1.924 277.269 1.78274 278.034 1.69579C278.798 1.60155 279.562 1.55363 280.327 1.55363Z" fill="white"/>
<g id="race-flag">
<path id="path956" d="M280.327 1.55369C280.744 1.55369 281.2 1.57178 281.694 1.60794C282.188 1.63696 282.687 1.68762 283.189 1.75995C283.698 1.83241 284.193 1.92659 284.671 2.04245C285.15 2.15108 285.583 2.28145 285.969 2.43359L287 2.84644V17.1663L286.606 17.0141C286.027 16.7895 285.502 16.594 285.03 16.4274C284.559 16.2536 284.088 16.1087 283.617 15.9928C283.146 15.8769 282.648 15.7899 282.123 15.732C281.605 15.6741 281.007 15.6452 280.327 15.6452C279.98 15.6452 279.617 15.6561 279.238 15.6778C278.867 15.6995 278.493 15.7358 278.114 15.7865C277.736 15.8372 277.365 15.906 277.002 15.9929C276.639 16.0727 276.296 16.1741 275.971 16.2972C275.562 16.4565 275.122 16.5942 274.651 16.7101C274.179 16.8187 273.697 16.9092 273.202 16.9817C272.708 17.0541 272.214 17.1084 271.72 17.1446C271.233 17.1736 270.77 17.1881 270.329 17.1881C269.773 17.1881 269.213 17.17 268.65 17.1339C268.094 17.0904 267.545 17.0071 267.005 16.884V25H262.846V4.62846C262.575 4.37495 262.367 4.08522 262.22 3.75928C262.073 3.42608 262 3.07842 262 2.71626C262 2.33962 262.077 1.98831 262.232 1.66235C262.386 1.32917 262.595 1.03945 262.857 0.793175C263.127 0.546905 263.436 0.354962 263.784 0.217348C264.139 0.0724868 264.518 6.10352e-05 264.919 6.10352e-05C265.336 6.10352e-05 265.722 0.0761158 266.078 0.228223C266.433 0.373084 266.742 0.572253 267.005 0.82577C267.267 1.07927 267.472 1.37627 267.619 1.7167C267.773 2.04989 267.85 2.40842 267.85 2.79232C267.85 2.82848 267.843 2.86828 267.827 2.91173C268.646 3.04208 269.48 3.10726 270.329 3.10726C270.831 3.10726 271.333 3.08556 271.835 3.04211C272.337 2.99866 272.832 2.9262 273.318 2.82479C273.743 2.74517 274.156 2.63653 274.558 2.49884C274.959 2.3612 275.369 2.23446 275.786 2.11858C276.52 1.92302 277.269 1.78177 278.033 1.69485C278.798 1.60066 279.562 1.55369 280.327 1.55369ZM285.366 5.44333C285.096 5.34914 284.818 5.26945 284.532 5.20429C284.254 5.13182 283.972 5.06664 283.687 5.00875V3.42249L283.559 3.3899C283.304 3.33201 283.046 3.28127 282.783 3.23767C282.528 3.19422 282.27 3.17252 282.007 3.17252V4.75878C281.729 4.72976 281.451 4.70806 281.173 4.69362C280.895 4.67189 280.617 4.66103 280.339 4.66103V3.10736C280.061 3.10736 279.783 3.11458 279.505 3.12901C279.234 3.14345 278.96 3.15794 278.682 3.17252V4.75881C278.396 4.78782 278.114 4.8204 277.836 4.85656C277.566 4.89272 277.296 4.94342 277.025 5.00859V3.41146C276.74 3.43318 276.45 3.49115 276.157 3.58534C275.871 3.67953 275.601 3.77731 275.346 3.87869V5.44323C275.075 5.55186 274.797 5.64241 274.512 5.71486C274.234 5.78733 273.952 5.85248 273.666 5.91037V4.36755C273.419 4.38198 273.164 4.42546 272.901 4.49792C272.639 4.5631 272.384 4.59568 272.137 4.59568C272.114 4.59568 272.09 4.59568 272.067 4.59568C272.044 4.58867 272.021 4.58515 271.998 4.58515V6.14969C271.727 6.17871 271.453 6.20041 271.175 6.21485C270.897 6.22929 270.619 6.23651 270.341 6.23651V4.66112C270.055 4.66112 269.773 4.65025 269.495 4.62853C269.217 4.59951 268.939 4.58502 268.661 4.58502V6.14953C268.383 6.12052 268.105 6.08794 267.827 6.05178C267.549 6.00833 267.275 5.96124 267.005 5.9105V4.36767C266.719 4.30979 266.437 4.2446 266.159 4.17214C265.881 4.09252 265.607 3.99475 265.336 3.87879C265.584 3.77016 265.788 3.61442 265.95 3.41159C266.113 3.20154 266.194 2.96974 266.194 2.71622C266.194 2.55688 266.159 2.4084 266.09 2.27078C266.02 2.12591 265.927 2.00277 265.811 1.90136C265.696 1.79273 265.561 1.70944 265.406 1.65148C265.252 1.5863 265.089 1.55373 264.919 1.55373C264.75 1.55373 264.587 1.5863 264.433 1.65148C264.286 1.70937 264.155 1.79266 264.039 1.90136C263.923 2.00284 263.831 2.12598 263.761 2.27078C263.699 2.40842 263.668 2.5569 263.668 2.71622C263.668 2.96974 263.742 3.19791 263.889 3.40071C264.035 3.59628 264.232 3.74478 264.479 3.84619V23.4464H265.337V14.8631C265.607 14.9646 265.881 15.0515 266.159 15.1239C266.437 15.1963 266.719 15.2615 267.005 15.3194V13.7549C267.275 13.8056 267.549 13.8527 267.827 13.8961C268.105 13.9323 268.383 13.9685 268.661 14.0048V15.5694C268.947 15.5911 269.229 15.6092 269.507 15.6236C269.785 15.6381 270.063 15.6453 270.341 15.6453V14.0699C270.89 14.0699 271.442 14.0482 271.998 14.0047V15.5692H272.044C272.307 15.5692 272.577 15.5403 272.855 15.4824C273.141 15.4245 273.411 15.3702 273.666 15.3195V13.7549C273.952 13.697 274.234 13.6319 274.512 13.5594C274.79 13.4869 275.064 13.4 275.334 13.2987V14.8632C275.396 14.8414 275.504 14.8052 275.659 14.7545C275.821 14.6966 275.991 14.6423 276.168 14.5915C276.346 14.5408 276.512 14.4974 276.667 14.4612C276.829 14.4177 276.941 14.396 277.003 14.396C277.003 14.396 277.003 14.3888 277.003 14.3743C277.01 14.3526 277.014 14.2947 277.014 14.2005C277.021 14.0992 277.025 13.9434 277.025 13.7333C277.025 13.516 277.025 13.2118 277.025 12.8207C277.573 12.6975 278.122 12.6214 278.67 12.5925V14.157C278.755 14.157 278.844 14.1535 278.936 14.1465C279.029 14.1321 279.118 14.1212 279.203 14.1139C279.388 14.0995 279.574 14.0886 279.759 14.0813C279.952 14.0743 280.145 14.0708 280.338 14.0708V12.5063C280.616 12.5063 280.894 12.5135 281.172 12.528C281.45 12.535 281.728 12.5567 282.006 12.5931V14.1577H282.099C282.354 14.1577 282.617 14.183 282.887 14.2338C283.165 14.2845 283.428 14.3388 283.675 14.3967V12.8322C283.968 12.8901 284.254 12.9517 284.532 13.017C284.818 13.0822 285.092 13.1763 285.355 13.2995V11.7023C285.084 11.6081 284.81 11.5248 284.532 11.4524C284.254 11.38 283.972 11.3112 283.686 11.246V9.70318C283.972 9.76107 284.254 9.8299 284.532 9.90966C284.81 9.98212 285.084 10.069 285.355 10.1704V8.57328C285.084 8.47909 284.81 8.39942 284.532 8.33427C284.254 8.26181 283.972 8.19662 283.686 8.13874V6.57419C283.972 6.63937 284.254 6.7082 284.532 6.78067C284.81 6.85313 285.084 6.94366 285.355 7.05227L285.366 5.44333ZM280.339 6.25816C280.617 6.25816 280.895 6.26538 281.173 6.27982C281.451 6.29425 281.729 6.31599 282.007 6.34501V7.8878C281.729 7.85878 281.451 7.83708 281.173 7.82264C280.895 7.8082 280.617 7.80098 280.339 7.80098V6.25816ZM280.339 9.3764C280.617 9.3764 280.895 9.38724 281.173 9.40896C281.451 9.4234 281.729 9.44149 282.007 9.46321V10.9952C281.729 10.9734 281.451 10.9553 281.173 10.9409C280.895 10.9265 280.617 10.9193 280.339 10.9193V9.3764ZM265.336 8.61585C265.607 8.71733 265.881 8.80061 266.159 8.86573C266.437 8.92362 266.715 8.98158 266.993 9.03961V10.6042C266.715 10.5463 266.437 10.4811 266.159 10.4086C265.881 10.3362 265.607 10.2529 265.336 10.1587V8.61585ZM265.336 11.7341C265.607 11.8355 265.881 11.9188 266.159 11.9839C266.437 12.0491 266.715 12.1107 266.993 12.1688V13.7333C266.715 13.6681 266.433 13.6029 266.147 13.5378C265.869 13.4653 265.599 13.3675 265.336 13.2444V11.7341ZM270.341 10.9409C270.619 10.9409 270.893 10.9337 271.164 10.9193C271.442 10.9048 271.72 10.8868 271.998 10.865V12.397C271.727 12.426 271.453 12.4514 271.175 12.4731C270.897 12.4875 270.619 12.4947 270.341 12.4947V10.9409ZM267.005 7.49676C267.275 7.5475 267.549 7.59459 267.827 7.63804C268.105 7.6742 268.383 7.70316 268.661 7.72489V9.27855C268.383 9.24954 268.105 9.21331 267.827 9.16986C267.549 9.12641 267.275 9.07931 267.005 9.02857V7.49676ZM265.336 5.48677C265.607 5.58825 265.881 5.67517 266.159 5.74752C266.437 5.8127 266.715 5.87432 266.993 5.93234V7.47513C266.715 7.41725 266.437 7.35563 266.159 7.29031C265.881 7.21785 265.607 7.12733 265.336 7.01871V5.48677ZM273.666 10.615L273.828 10.5824C274.083 10.5245 274.334 10.4665 274.581 10.4085C274.836 10.3506 275.087 10.2746 275.334 10.1804V11.7014C275.064 11.8029 274.79 11.8898 274.512 11.9622C274.234 12.0274 273.952 12.089 273.666 12.147L273.666 10.615ZM278.682 11.0278C278.952 10.9988 279.227 10.9771 279.505 10.9627C279.783 10.9482 280.057 10.941 280.327 10.941V12.4947C280.057 12.4947 279.783 12.5019 279.505 12.5163C279.227 12.5233 278.952 12.5414 278.682 12.5706V11.0278ZM277.025 9.70235C277.296 9.63717 277.566 9.59007 277.836 9.56106C278.114 9.5249 278.392 9.49229 278.67 9.46328V10.9952C278.4 11.0314 278.126 11.0676 277.848 11.1039C277.57 11.1401 277.296 11.1872 277.025 11.2452V9.70235ZM277.025 6.57326C277.296 6.52981 277.566 6.48634 277.836 6.44289C278.114 6.39943 278.392 6.36686 278.67 6.34513V7.88792C278.392 7.90965 278.114 7.94226 277.836 7.98571C277.566 8.02916 277.296 8.07625 277.025 8.12699V6.57326ZM267.005 10.615C267.275 10.6729 267.549 10.7235 267.827 10.767C268.105 10.8032 268.383 10.8357 268.661 10.8647V12.3858C268.383 12.3714 268.105 12.3425 267.827 12.299C267.549 12.2556 267.275 12.2085 267.005 12.1577V10.615ZM270.341 7.8227C270.619 7.8227 270.893 7.81548 271.164 7.80105C271.442 7.78661 271.72 7.76856 271.998 7.74683V9.27878C271.72 9.3005 271.442 9.31859 271.164 9.33303C270.893 9.34746 270.619 9.35468 270.341 9.35468V7.8227ZM278.682 4.76968C278.952 4.74067 279.227 4.72258 279.505 4.71544C279.783 4.701 280.057 4.69013 280.327 4.68284V6.23651C279.771 6.23651 279.223 6.25824 278.682 6.3017V4.76968ZM273.666 7.49676C273.952 7.43887 274.233 7.37728 274.512 7.31197C274.79 7.2395 275.064 7.15258 275.334 7.05121V8.57228C275.064 8.67376 274.79 8.76067 274.512 8.83304C274.233 8.89822 273.952 8.95618 273.666 9.00692V7.49676ZM272.021 9.28946C272.291 9.26773 272.561 9.23516 272.832 9.19171C273.11 9.14826 273.384 9.10116 273.654 9.05042V10.6041C273.384 10.662 273.11 10.7091 272.832 10.7454C272.561 10.7744 272.291 10.807 272.021 10.8431V9.28946ZM268.684 9.28946C268.955 9.31119 269.225 9.33292 269.495 9.35465C269.773 9.36909 270.048 9.3763 270.318 9.3763V10.9191C270.048 10.9191 269.773 10.9119 269.495 10.8974C269.225 10.883 268.955 10.8649 268.684 10.8432V9.28946ZM268.684 6.16038C268.955 6.18939 269.225 6.21478 269.495 6.23651C269.773 6.25094 270.048 6.25816 270.318 6.25816V7.80095C269.769 7.80095 269.225 7.76838 268.684 7.7032V6.16038ZM275.357 5.47589C275.62 5.36726 275.886 5.28037 276.157 5.21517C276.435 5.1427 276.713 5.07752 276.991 5.01963V6.55158C276.713 6.61675 276.435 6.68559 276.157 6.75805C275.886 6.83052 275.62 6.91741 275.357 7.01878V5.47589ZM272.021 6.16038C272.561 6.11693 273.106 6.04087 273.654 5.93222V7.47504C273.384 7.52578 273.11 7.57287 272.832 7.61632C272.561 7.65977 272.291 7.6887 272.021 7.70314V6.16038ZM275.357 8.60497C275.62 8.50349 275.886 8.41658 276.157 8.34422C276.435 8.27175 276.713 8.20657 276.991 8.14868V9.69147C276.713 9.74936 276.438 9.81454 276.168 9.88701C275.898 9.95218 275.628 10.0355 275.357 10.1369V8.60497ZM268.684 12.4294C268.955 12.4511 269.225 12.4692 269.495 12.4836C269.773 12.4981 270.048 12.5053 270.318 12.5053V14.0481C270.048 14.0481 269.773 14.0409 269.495 14.0264C269.225 14.012 268.955 13.9903 268.684 13.9613V12.4294ZM272.021 12.4294C272.291 12.4004 272.561 12.3678 272.832 12.3316C273.11 12.2882 273.384 12.2375 273.654 12.1796V13.7333C273.384 13.784 273.11 13.8311 272.832 13.8746C272.561 13.9107 272.291 13.9397 272.021 13.9614V12.4294ZM278.682 7.90964C278.952 7.88063 279.227 7.85889 279.505 7.84445C279.783 7.83002 280.057 7.8228 280.327 7.8228V9.35471C280.057 9.35471 279.783 9.36196 279.505 9.3764C279.227 9.38341 278.952 9.40146 278.682 9.43062V7.90964ZM275.357 11.7341C275.597 11.6327 275.84 11.5494 276.087 11.4842C276.334 11.419 276.585 11.3574 276.84 11.2994L276.991 11.2668V12.7987C276.713 12.8566 276.438 12.9218 276.168 12.9942C275.898 13.0594 275.628 13.1427 275.357 13.2441L275.357 11.7341ZM282.03 4.76968C282.3 4.80585 282.571 4.84207 282.841 4.87838C283.111 4.91454 283.382 4.96163 283.652 5.01966V6.54073C283.127 6.44654 282.586 6.37049 282.03 6.31257V4.76968ZM282.03 11.0278C282.3 11.0569 282.571 11.0931 282.841 11.1365C283.111 11.1727 283.382 11.2161 283.652 11.2669V12.7988C283.382 12.7409 283.111 12.6975 282.841 12.6685C282.571 12.6323 282.3 12.5997 282.03 12.5707V11.0278ZM282.03 7.90964C282.3 7.93137 282.571 7.96394 282.841 8.00739C283.111 8.05085 283.382 8.09794 283.652 8.14868V9.68063C283.382 9.62274 283.111 9.57564 282.841 9.53934C282.571 9.49589 282.3 9.45963 282.03 9.43062V7.90964Z" fill="black"/>
</g>
</g>
</g>
<defs>
<clipPath id="clip0_205_94">
<rect width="400" height="30" fill="white"/>
</clipPath>
</defs>
</svg>
