<svg width="400" height="30" viewBox="0 0 400 30" fill="none" xmlns="http://www.w3.org/2000/svg">
<g id="track-svg-plainSVG-new-road-size 1" clip-path="url(#clip0_205_94)">
    <path id="race-road" d="M0 29H400" stroke="#616161" stroke-width="2" stroke-dasharray="8 4"/>
    <g id="race-car-picture">
        <g id="Group 1">
            <g id="g946">
                    <path id="path956-4" d="M18.327 1.55366C18.744 1.55366 19.1997 1.57167 19.694 1.6077C20.1882 1.63667 20.6864 1.68732 21.1884 1.75963C21.6981 1.8322 22.1924 1.92631 22.6712 2.04196C23.1501 2.15056 23.5826 2.28095 23.9688 2.43311L24.9998 2.84598V17.1659L24.6059 17.0135C24.0267 16.789 23.5015 16.5935 23.0304 16.4269C22.5593 16.253 22.0881 16.1081 21.617 15.9923C21.1459 15.8763 20.6478 15.7894 20.1226 15.7315C19.6052 15.6735 19.0066 15.6445 18.327 15.6445C17.9794 15.6445 17.6164 15.6558 17.238 15.6785C16.8673 15.7012 16.4927 15.7375 16.1143 15.7874C15.7358 15.8381 15.3651 15.9068 15.0021 15.9938C14.6391 16.0734 14.2955 16.1748 13.9711 16.298C13.5618 16.4572 13.1216 16.5949 12.6504 16.7109C12.1793 16.8195 11.6966 16.9101 11.2023 16.9826C10.708 17.0552 10.2138 17.1095 9.71947 17.1455C9.23292 17.1745 8.76952 17.189 8.32931 17.189C7.77324 17.189 7.21327 17.171 6.64947 17.1349C6.0934 17.0914 5.54508 17.0081 5.00446 16.8851V25.0011H0.845515V4.62951C0.575178 4.37601 0.366678 4.0863 0.219957 3.76035C0.0733116 3.42715 0 3.07947 0 2.71732C0 2.34067 0.0772078 1.98938 0.231664 1.66344C0.386121 1.33023 0.594678 1.04053 0.85728 0.794276C1.12757 0.548103 1.43649 0.356129 1.78405 0.218403C2.1393 0.0735211 2.51769 0.00109863 2.91931 0.00109863C3.33636 0.00109863 3.72253 0.0772003 4.0778 0.229389C4.43305 0.374271 4.74203 0.573438 5.00463 0.826918C5.26721 1.08042 5.47185 1.37739 5.6186 1.71782C5.77306 2.05102 5.85026 2.40957 5.85026 2.79347C5.85026 2.8295 5.84272 2.86932 5.8276 2.91291C6.64624 3.04317 7.48032 3.10832 8.32989 3.10832C8.83188 3.10832 9.33394 3.08652 9.83596 3.04293C10.338 2.99959 10.8322 2.92716 11.3187 2.82562C11.7435 2.746 12.1567 2.63738 12.5583 2.49981C12.9599 2.36223 13.3693 2.23549 13.7863 2.11956C14.52 1.92403 15.2692 1.78277 16.0338 1.69582C16.7984 1.60158 17.5624 1.55366 18.327 1.55366Z"  fill="white"/>
                <path id="path848" d="M9.84131 19.6483C10.2326 19.6483 10.5652 19.785 10.8391 20.0584C11.1131 20.3318 11.25 20.6639 11.25 21.0545C11.25 21.4321 11.1131 21.7576 10.8391 22.0311C10.5522 22.3175 10.2196 22.4608 9.84131 22.4608C9.46305 22.4608 9.13697 22.3175 8.86305 22.0311C8.5761 21.7576 8.43262 21.4321 8.43262 21.0545C8.43262 20.6639 8.56957 20.3318 8.84349 20.0584C9.1174 19.785 9.45001 19.6483 9.84131 19.6483Z" fill="white"/>
                <path id="path844" d="M4.22608 12.6365H2.81738V12.5583C2.81738 12.389 2.85651 12.2262 2.93477 12.07C3.01301 11.9007 3.11735 11.7575 3.2478 11.6403C3.37824 11.5101 3.52824 11.4124 3.6978 11.3474C3.85432 11.2693 4.01736 11.2302 4.18693 11.2302H14.0674V4.19901H11.9543L12.6587 2.79279H29.5239L30.2282 4.19901H23.9087V11.2302H29.5239V12.6365H30.9326V11.2302H40.7739C41.1652 11.2302 41.4978 11.3669 41.7717 11.6404C42.0457 11.9138 42.1826 12.2459 42.1826 12.6365H40.7739V15.4295H42.1826V19.6483H37.7217C37.5783 19.2316 37.3761 18.8474 37.1152 18.4959C36.8413 18.1573 36.5283 17.8644 36.1761 17.617C35.8239 17.3696 35.4457 17.1807 35.0413 17.0506C34.6239 16.9075 34.1935 16.8359 33.75 16.8359C33.3065 16.8359 32.8826 16.9075 32.4783 17.0506C32.0609 17.1808 31.6761 17.3697 31.3239 17.617C30.9717 17.8645 30.6652 18.1574 30.4043 18.4959C30.1304 18.8474 29.9217 19.2316 29.7783 19.6483H13.8326C13.6761 19.2316 13.4674 18.8474 13.2065 18.4959C12.9326 18.1573 12.6261 17.8644 12.287 17.617C11.9348 17.3696 11.5565 17.1807 11.1522 17.0506C10.7348 16.9075 10.2978 16.8359 9.8413 16.8359C9.39782 16.8359 8.97391 16.9075 8.56956 17.0506C8.15217 17.1808 7.76739 17.3697 7.41522 17.617C7.06304 17.8645 6.75652 18.1574 6.49565 18.4959C6.22174 18.8474 6.01305 19.2316 5.86957 19.6483H2.81739V15.4295H4.22608L4.22608 12.6365Z" fill="#0EFF00"/>
                <path id="path846" d="M22.5 4.1991H15.4761V11.2303H22.5V4.1991Z" fill="black"/>
            </g>
        </g>
    </g>
    <g id="flag-race-pic">
        <path id="path956-4" d="M392.327 1.55366C392.744 1.55366 393.2 1.57167 393.694 1.6077C394.188 1.63667 394.686 1.68732 395.188 1.75963C395.698 1.8322 396.192 1.92631 396.671 2.04196C397.15 2.15056 397.583 2.28095 397.969 2.43311L399 2.84598V17.1659L398.606 17.0135C398.027 16.789 397.502 16.5935 397.03 16.4269C396.559 16.253 396.088 16.1081 395.617 15.9923C395.146 15.8763 394.648 15.7894 394.123 15.7315C393.605 15.6735 393.007 15.6445 392.327 15.6445C391.979 15.6445 391.616 15.6558 391.238 15.6785C390.867 15.7012 390.493 15.7375 390.114 15.7874C389.736 15.8381 389.365 15.9068 389.002 15.9938C388.639 16.0734 388.296 16.1748 387.971 16.298C387.562 16.4572 387.122 16.5949 386.65 16.7109C386.179 16.8195 385.697 16.9101 385.202 16.9826C384.708 17.0552 384.214 17.1095 383.72 17.1455C383.233 17.1745 382.77 17.189 382.329 17.189C381.773 17.189 381.213 17.171 380.65 17.1349C380.093 17.0914 379.545 17.0081 379.005 16.8851V25.0011H374.846V4.62951C374.575 4.37601 374.367 4.0863 374.22 3.76035C374.073 3.42715 374 3.07947 374 2.71732C374 2.34067 374.077 1.98938 374.232 1.66344C374.386 1.33023 374.595 1.04053 374.857 0.794276C375.128 0.548103 375.437 0.356129 375.784 0.218403C376.139 0.0735211 376.518 0.00109863 376.919 0.00109863C377.336 0.00109863 377.723 0.0772003 378.078 0.229389C378.433 0.374271 378.742 0.573438 379.005 0.826918C379.267 1.08042 379.472 1.37739 379.619 1.71782C379.773 2.05102 379.85 2.40957 379.85 2.79347C379.85 2.8295 379.843 2.86932 379.828 2.91291C380.646 3.04317 381.48 3.10832 382.33 3.10832C382.832 3.10832 383.334 3.08652 383.836 3.04293C384.338 2.99959 384.832 2.92716 385.319 2.82562C385.744 2.746 386.157 2.63738 386.558 2.49981C386.96 2.36223 387.369 2.23549 387.786 2.11956C388.52 1.92403 389.269 1.78277 390.034 1.69582C390.798 1.60158 391.562 1.55366 392.327 1.55366Z" fill="white"/>
        <g id="race-flag">
            <path id="path956" d="M392.327 1.55369C392.744 1.55369 393.2 1.57178 393.694 1.60794C394.188 1.63696 394.687 1.68762 395.189 1.75995C395.698 1.83241 396.193 1.92659 396.671 2.04245C397.15 2.15108 397.583 2.28145 397.969 2.43359L399 2.84644V17.1663L398.606 17.0141C398.027 16.7895 397.502 16.594 397.03 16.4274C396.559 16.2536 396.088 16.1087 395.617 15.9928C395.146 15.8769 394.648 15.7899 394.123 15.732C393.605 15.6741 393.007 15.6452 392.327 15.6452C391.98 15.6452 391.617 15.6561 391.238 15.6778C390.867 15.6995 390.493 15.7358 390.114 15.7865C389.736 15.8372 389.365 15.906 389.002 15.9929C388.639 16.0727 388.296 16.1741 387.971 16.2972C387.562 16.4565 387.122 16.5942 386.651 16.7101C386.179 16.8187 385.697 16.9092 385.202 16.9817C384.708 17.0541 384.214 17.1084 383.72 17.1446C383.233 17.1736 382.77 17.1881 382.329 17.1881C381.773 17.1881 381.213 17.17 380.65 17.1339C380.094 17.0904 379.545 17.0071 379.005 16.884V25H374.846V4.62846C374.575 4.37495 374.367 4.08522 374.22 3.75928C374.073 3.42608 374 3.07842 374 2.71626C374 2.33962 374.077 1.98831 374.232 1.66235C374.386 1.32917 374.595 1.03945 374.857 0.793175C375.127 0.546905 375.436 0.354962 375.784 0.217348C376.139 0.0724868 376.518 6.10352e-05 376.919 6.10352e-05C377.336 6.10352e-05 377.722 0.0761158 378.078 0.228223C378.433 0.373084 378.742 0.572253 379.005 0.82577C379.267 1.07927 379.472 1.37627 379.619 1.7167C379.773 2.04989 379.85 2.40842 379.85 2.79232C379.85 2.82848 379.843 2.86828 379.827 2.91173C380.646 3.04208 381.48 3.10726 382.329 3.10726C382.831 3.10726 383.333 3.08556 383.835 3.04211C384.337 2.99866 384.832 2.9262 385.318 2.82479C385.743 2.74517 386.156 2.63653 386.558 2.49884C386.959 2.3612 387.369 2.23446 387.786 2.11858C388.52 1.92302 389.269 1.78177 390.033 1.69485C390.798 1.60066 391.562 1.55369 392.327 1.55369ZM397.366 5.44333C397.096 5.34914 396.818 5.26945 396.532 5.20429C396.254 5.13182 395.972 5.06664 395.687 5.00875V3.42249L395.559 3.3899C395.304 3.33201 395.046 3.28127 394.783 3.23767C394.528 3.19422 394.27 3.17252 394.007 3.17252V4.75878C393.729 4.72976 393.451 4.70806 393.173 4.69362C392.895 4.67189 392.617 4.66103 392.339 4.66103V3.10736C392.061 3.10736 391.783 3.11458 391.505 3.12901C391.234 3.14345 390.96 3.15794 390.682 3.17252V4.75881C390.396 4.78782 390.114 4.8204 389.836 4.85656C389.566 4.89272 389.296 4.94342 389.025 5.00859V3.41146C388.74 3.43318 388.45 3.49115 388.157 3.58534C387.871 3.67953 387.601 3.77731 387.346 3.87869V5.44323C387.075 5.55186 386.797 5.64241 386.512 5.71486C386.234 5.78733 385.952 5.85248 385.666 5.91037V4.36755C385.419 4.38198 385.164 4.42546 384.901 4.49792C384.639 4.5631 384.384 4.59568 384.137 4.59568C384.114 4.59568 384.09 4.59568 384.067 4.59568C384.044 4.58867 384.021 4.58515 383.998 4.58515V6.14969C383.727 6.17871 383.453 6.20041 383.175 6.21485C382.897 6.22929 382.619 6.23651 382.341 6.23651V4.66112C382.055 4.66112 381.773 4.65025 381.495 4.62853C381.217 4.59951 380.939 4.58502 380.661 4.58502V6.14953C380.383 6.12052 380.105 6.08794 379.827 6.05178C379.549 6.00833 379.275 5.96124 379.005 5.9105V4.36767C378.719 4.30979 378.437 4.2446 378.159 4.17214C377.881 4.09252 377.607 3.99475 377.336 3.87879C377.584 3.77016 377.788 3.61442 377.95 3.41159C378.113 3.20154 378.194 2.96974 378.194 2.71622C378.194 2.55688 378.159 2.4084 378.09 2.27078C378.02 2.12591 377.927 2.00277 377.811 1.90136C377.696 1.79273 377.561 1.70944 377.406 1.65148C377.252 1.5863 377.089 1.55373 376.919 1.55373C376.75 1.55373 376.587 1.5863 376.433 1.65148C376.286 1.70937 376.155 1.79266 376.039 1.90136C375.923 2.00284 375.831 2.12598 375.761 2.27078C375.699 2.40842 375.668 2.5569 375.668 2.71622C375.668 2.96974 375.742 3.19791 375.889 3.40071C376.035 3.59628 376.232 3.74478 376.479 3.84619V23.4464H377.337V14.8631C377.607 14.9646 377.881 15.0515 378.159 15.1239C378.437 15.1963 378.719 15.2615 379.005 15.3194V13.7549C379.275 13.8056 379.549 13.8527 379.827 13.8961C380.105 13.9323 380.383 13.9685 380.661 14.0048V15.5694C380.947 15.5911 381.229 15.6092 381.507 15.6236C381.785 15.6381 382.063 15.6453 382.341 15.6453V14.0699C382.89 14.0699 383.442 14.0482 383.998 14.0047V15.5692H384.044C384.307 15.5692 384.577 15.5403 384.855 15.4824C385.141 15.4245 385.411 15.3702 385.666 15.3195V13.7549C385.952 13.697 386.234 13.6319 386.512 13.5594C386.79 13.4869 387.064 13.4 387.334 13.2987V14.8632C387.396 14.8414 387.504 14.8052 387.659 14.7545C387.821 14.6966 387.991 14.6423 388.168 14.5915C388.346 14.5408 388.512 14.4974 388.667 14.4612C388.829 14.4177 388.941 14.396 389.003 14.396C389.003 14.396 389.003 14.3888 389.003 14.3743C389.01 14.3526 389.014 14.2947 389.014 14.2005C389.021 14.0992 389.025 13.9434 389.025 13.7333C389.025 13.516 389.025 13.2118 389.025 12.8207C389.573 12.6975 390.122 12.6214 390.67 12.5925V14.157C390.755 14.157 390.844 14.1535 390.936 14.1465C391.029 14.1321 391.118 14.1212 391.203 14.1139C391.388 14.0995 391.574 14.0886 391.759 14.0813C391.952 14.0743 392.145 14.0708 392.338 14.0708V12.5063C392.616 12.5063 392.894 12.5135 393.172 12.528C393.45 12.535 393.728 12.5567 394.006 12.5931V14.1577H394.099C394.354 14.1577 394.617 14.183 394.887 14.2338C395.165 14.2845 395.428 14.3388 395.675 14.3967V12.8322C395.968 12.8901 396.254 12.9517 396.532 13.017C396.818 13.0822 397.092 13.1763 397.355 13.2995V11.7023C397.084 11.6081 396.81 11.5248 396.532 11.4524C396.254 11.38 395.972 11.3112 395.686 11.246V9.70318C395.972 9.76107 396.254 9.8299 396.532 9.90966C396.81 9.98212 397.084 10.069 397.355 10.1704V8.57328C397.084 8.47909 396.81 8.39942 396.532 8.33427C396.254 8.26181 395.972 8.19662 395.686 8.13874V6.57419C395.972 6.63937 396.254 6.7082 396.532 6.78067C396.81 6.85313 397.084 6.94366 397.355 7.05227L397.366 5.44333ZM392.339 6.25816C392.617 6.25816 392.895 6.26538 393.173 6.27982C393.451 6.29425 393.729 6.31599 394.007 6.34501V7.8878C393.729 7.85878 393.451 7.83708 393.173 7.82264C392.895 7.8082 392.617 7.80098 392.339 7.80098V6.25816ZM392.339 9.3764C392.617 9.3764 392.895 9.38724 393.173 9.40896C393.451 9.4234 393.729 9.44149 394.007 9.46321V10.9952C393.729 10.9734 393.451 10.9553 393.173 10.9409C392.895 10.9265 392.617 10.9193 392.339 10.9193V9.3764ZM377.336 8.61585C377.607 8.71733 377.881 8.80061 378.159 8.86573C378.437 8.92362 378.715 8.98158 378.993 9.03961V10.6042C378.715 10.5463 378.437 10.4811 378.159 10.4086C377.881 10.3362 377.607 10.2529 377.336 10.1587V8.61585ZM377.336 11.7341C377.607 11.8355 377.881 11.9188 378.159 11.9839C378.437 12.0491 378.715 12.1107 378.993 12.1688V13.7333C378.715 13.6681 378.433 13.6029 378.147 13.5378C377.869 13.4653 377.599 13.3675 377.336 13.2444V11.7341ZM382.341 10.9409C382.619 10.9409 382.893 10.9337 383.164 10.9193C383.442 10.9048 383.72 10.8868 383.998 10.865V12.397C383.727 12.426 383.453 12.4514 383.175 12.4731C382.897 12.4875 382.619 12.4947 382.341 12.4947V10.9409ZM379.005 7.49676C379.275 7.5475 379.549 7.59459 379.827 7.63804C380.105 7.6742 380.383 7.70316 380.661 7.72489V9.27855C380.383 9.24954 380.105 9.21331 379.827 9.16986C379.549 9.12641 379.275 9.07931 379.005 9.02857V7.49676ZM377.336 5.48677C377.607 5.58825 377.881 5.67517 378.159 5.74752C378.437 5.8127 378.715 5.87432 378.993 5.93234V7.47513C378.715 7.41725 378.437 7.35563 378.159 7.29031C377.881 7.21785 377.607 7.12733 377.336 7.01871V5.48677ZM385.666 10.615L385.828 10.5824C386.083 10.5245 386.334 10.4665 386.581 10.4085C386.836 10.3506 387.087 10.2746 387.334 10.1804V11.7014C387.064 11.8029 386.79 11.8898 386.512 11.9622C386.234 12.0274 385.952 12.089 385.666 12.147L385.666 10.615ZM390.682 11.0278C390.952 10.9988 391.227 10.9771 391.505 10.9627C391.783 10.9482 392.057 10.941 392.327 10.941V12.4947C392.057 12.4947 391.783 12.5019 391.505 12.5163C391.227 12.5233 390.952 12.5414 390.682 12.5706V11.0278ZM389.025 9.70235C389.296 9.63717 389.566 9.59007 389.836 9.56106C390.114 9.5249 390.392 9.49229 390.67 9.46328V10.9952C390.4 11.0314 390.126 11.0676 389.848 11.1039C389.57 11.1401 389.296 11.1872 389.025 11.2452V9.70235ZM389.025 6.57326C389.296 6.52981 389.566 6.48634 389.836 6.44289C390.114 6.39943 390.392 6.36686 390.67 6.34513V7.88792C390.392 7.90965 390.114 7.94226 389.836 7.98571C389.566 8.02916 389.296 8.07625 389.025 8.12699V6.57326ZM379.005 10.615C379.275 10.6729 379.549 10.7235 379.827 10.767C380.105 10.8032 380.383 10.8357 380.661 10.8647V12.3858C380.383 12.3714 380.105 12.3425 379.827 12.299C379.549 12.2556 379.275 12.2085 379.005 12.1577V10.615ZM382.341 7.8227C382.619 7.8227 382.893 7.81548 383.164 7.80105C383.442 7.78661 383.72 7.76856 383.998 7.74683V9.27878C383.72 9.3005 383.442 9.31859 383.164 9.33303C382.893 9.34746 382.619 9.35468 382.341 9.35468V7.8227ZM390.682 4.76968C390.952 4.74067 391.227 4.72258 391.505 4.71544C391.783 4.701 392.057 4.69013 392.327 4.68284V6.23651C391.771 6.23651 391.223 6.25824 390.682 6.3017V4.76968ZM385.666 7.49676C385.952 7.43887 386.233 7.37728 386.512 7.31197C386.79 7.2395 387.064 7.15258 387.334 7.05121V8.57228C387.064 8.67376 386.79 8.76067 386.512 8.83304C386.233 8.89822 385.952 8.95618 385.666 9.00692V7.49676ZM384.021 9.28946C384.291 9.26773 384.561 9.23516 384.832 9.19171C385.11 9.14826 385.384 9.10116 385.654 9.05042V10.6041C385.384 10.662 385.11 10.7091 384.832 10.7454C384.561 10.7744 384.291 10.807 384.021 10.8431V9.28946ZM380.684 9.28946C380.955 9.31119 381.225 9.33292 381.495 9.35465C381.773 9.36909 382.048 9.3763 382.318 9.3763V10.9191C382.048 10.9191 381.773 10.9119 381.495 10.8974C381.225 10.883 380.955 10.8649 380.684 10.8432V9.28946ZM380.684 6.16038C380.955 6.18939 381.225 6.21478 381.495 6.23651C381.773 6.25094 382.048 6.25816 382.318 6.25816V7.80095C381.769 7.80095 381.225 7.76838 380.684 7.7032V6.16038ZM387.357 5.47589C387.62 5.36726 387.886 5.28037 388.157 5.21517C388.435 5.1427 388.713 5.07752 388.991 5.01963V6.55158C388.713 6.61675 388.435 6.68559 388.157 6.75805C387.886 6.83052 387.62 6.91741 387.357 7.01878V5.47589ZM384.021 6.16038C384.561 6.11693 385.106 6.04087 385.654 5.93222V7.47504C385.384 7.52578 385.11 7.57287 384.832 7.61632C384.561 7.65977 384.291 7.6887 384.021 7.70314V6.16038ZM387.357 8.60497C387.62 8.50349 387.886 8.41658 388.157 8.34422C388.435 8.27175 388.713 8.20657 388.991 8.14868V9.69147C388.713 9.74936 388.438 9.81454 388.168 9.88701C387.898 9.95218 387.628 10.0355 387.357 10.1369V8.60497ZM380.684 12.4294C380.955 12.4511 381.225 12.4692 381.495 12.4836C381.773 12.4981 382.048 12.5053 382.318 12.5053V14.0481C382.048 14.0481 381.773 14.0409 381.495 14.0264C381.225 14.012 380.955 13.9903 380.684 13.9613V12.4294ZM384.021 12.4294C384.291 12.4004 384.561 12.3678 384.832 12.3316C385.11 12.2882 385.384 12.2375 385.654 12.1796V13.7333C385.384 13.784 385.11 13.8311 384.832 13.8746C384.561 13.9107 384.291 13.9397 384.021 13.9614V12.4294ZM390.682 7.90964C390.952 7.88063 391.227 7.85889 391.505 7.84445C391.783 7.83002 392.057 7.8228 392.327 7.8228V9.35471C392.057 9.35471 391.783 9.36196 391.505 9.3764C391.227 9.38341 390.952 9.40146 390.682 9.43062V7.90964ZM387.357 11.7341C387.597 11.6327 387.84 11.5494 388.087 11.4842C388.334 11.419 388.585 11.3574 388.84 11.2994L388.991 11.2668V12.7987C388.713 12.8566 388.438 12.9218 388.168 12.9942C387.898 13.0594 387.628 13.1427 387.357 13.2441L387.357 11.7341ZM394.03 4.76968C394.3 4.80585 394.571 4.84207 394.841 4.87838C395.111 4.91454 395.382 4.96163 395.652 5.01966V6.54073C395.127 6.44654 394.586 6.37049 394.03 6.31257V4.76968ZM394.03 11.0278C394.3 11.0569 394.571 11.0931 394.841 11.1365C395.111 11.1727 395.382 11.2161 395.652 11.2669V12.7988C395.382 12.7409 395.111 12.6975 394.841 12.6685C394.571 12.6323 394.3 12.5997 394.03 12.5707V11.0278ZM394.03 7.90964C394.3 7.93137 394.571 7.96394 394.841 8.00739C395.111 8.05085 395.382 8.09794 395.652 8.14868V9.68063C395.382 9.62274 395.111 9.57564 394.841 9.53934C394.571 9.49589 394.3 9.45963 394.03 9.43062V7.90964Z" fill="black"/>
        </g>
    </g>
</g>
<defs>
<clipPath id="clip0_205_94">
<rect width="400" height="30" fill="white"/>
</clipPath>
</defs>
</svg>
