<svg width="400" height="30" viewBox="0 0 400 30" fill="none" xmlns="http://www.w3.org/2000/svg">
<g id="track-svg-plainSVG-new-road-size 1" clip-path="url(#clip0_205_94)">
<path id="race-road" d="M0 29H400" stroke="#616161" stroke-width="2" stroke-dasharray="8 4"/>
<g id="race-car-picture">
<g id="g946">
<path id="path839" d="M88.6913 8.33321H86.2261C85.6391 8.33321 85.0913 8.44284 84.5826 8.66205C84.0739 8.88127 83.6304 9.18416 83.2522 9.57078C82.8609 9.94457 82.5543 10.3828 82.3326 10.8856C82.1109 11.3883 82 11.9297 82 12.5097V22.2351H87.8696C88.0261 22.6476 88.2413 23.0214 88.5152 23.3565C88.7761 23.7045 89.0761 24.001 89.4152 24.2459C89.7543 24.4908 90.1326 24.6777 90.55 24.8066C90.9674 24.9356 91.3978 25.0001 91.8413 25.0001C92.7544 25.0001 93.5696 24.7488 94.287 24.2461C94.9913 23.7563 95.5 23.086 95.813 22.2353H111.778C111.935 22.6477 112.15 23.0215 112.424 23.3567C112.685 23.7047 112.985 24.0012 113.324 24.2461C113.663 24.491 114.041 24.6779 114.459 24.8068C114.876 24.9358 115.307 25.0002 115.75 25.0002C116.663 25.0002 117.478 24.7489 118.196 24.2462C118.9 23.7564 119.409 23.0862 119.722 22.2354H127V12.51C127 11.93 126.889 11.3886 126.667 10.8859C126.446 10.3832 126.146 9.94492 125.767 9.57112C125.376 9.18443 124.926 8.88148 124.417 8.66234C123.909 8.44313 123.361 8.3335 122.774 8.3335H117.491C116.787 6.92849 116.089 5.53642 115.398 4.15724C114.693 2.77801 113.983 1.39235 113.265 0.000244141H92.9174C92.2 1.39235 91.4957 2.77801 90.8044 4.15724C90.1 5.53642 89.3956 6.92821 88.6913 8.33321Z" fill="black"/>
<path id="path850" d="M115.75 19.6483C116.141 19.6483 116.474 19.785 116.748 20.0584C117.022 20.3318 117.159 20.6639 117.159 21.0545C117.159 21.4321 117.022 21.7576 116.748 22.0311C116.461 22.3175 116.128 22.4608 115.75 22.4608C115.372 22.4608 115.046 22.3175 114.772 22.0311C114.485 21.7576 114.341 21.4321 114.341 21.0545C114.341 20.6639 114.478 20.3318 114.752 20.0584C115.026 19.785 115.359 19.6483 115.75 19.6483Z" fill="white"/>
<path id="path848" d="M91.8413 19.6483C92.2326 19.6483 92.5652 19.785 92.8391 20.0584C93.1131 20.3318 93.25 20.6639 93.25 21.0545C93.25 21.4321 93.1131 21.7576 92.8391 22.0311C92.5522 22.3175 92.2196 22.4608 91.8413 22.4608C91.4631 22.4608 91.137 22.3175 90.8631 22.0311C90.5761 21.7576 90.4326 21.4321 90.4326 21.0545C90.4326 20.6639 90.5696 20.3318 90.8435 20.0584C91.1174 19.785 91.45 19.6483 91.8413 19.6483Z" fill="white"/>
<path id="path844" d="M86.2261 12.6365H84.8174V12.5583C84.8174 12.389 84.8565 12.2262 84.9348 12.07C85.013 11.9007 85.1174 11.7575 85.2478 11.6403C85.3782 11.5101 85.5282 11.4124 85.6978 11.3474C85.8543 11.2693 86.0174 11.2302 86.1869 11.2302H96.0674V4.19901H93.9543L94.6587 2.79279H111.524L112.228 4.19901H105.909V11.2302H111.524V12.6365H112.933V11.2302H122.774C123.165 11.2302 123.498 11.3669 123.772 11.6404C124.046 11.9138 124.183 12.2459 124.183 12.6365H122.774V15.4295H124.183V19.6483H119.722C119.578 19.2316 119.376 18.8474 119.115 18.4959C118.841 18.1573 118.528 17.8644 118.176 17.617C117.824 17.3696 117.446 17.1807 117.041 17.0506C116.624 16.9075 116.193 16.8359 115.75 16.8359C115.307 16.8359 114.883 16.9075 114.478 17.0506C114.061 17.1808 113.676 17.3697 113.324 17.617C112.972 17.8645 112.665 18.1574 112.404 18.4959C112.13 18.8474 111.922 19.2316 111.778 19.6483H95.8326C95.6761 19.2316 95.4674 18.8474 95.2065 18.4959C94.9326 18.1573 94.6261 17.8644 94.287 17.617C93.9348 17.3696 93.5565 17.1807 93.1522 17.0506C92.7348 16.9075 92.2978 16.8359 91.8413 16.8359C91.3978 16.8359 90.9739 16.9075 90.5696 17.0506C90.1522 17.1808 89.7674 17.3697 89.4152 17.617C89.063 17.8645 88.7565 18.1574 88.4957 18.4959C88.2217 18.8474 88.013 19.2316 87.8696 19.6483H84.8174V15.4295H86.2261L86.2261 12.6365Z" fill="#0EFF00"/>
<path id="path846" d="M104.5 4.1991H97.4761V11.2303H104.5V4.1991Z" fill="black"/>
</g>
</g>
<g id="g1643">
<path id="path956-4" d="M354.327 1.55363C354.744 1.55363 355.2 1.57163 355.694 1.60767C356.188 1.63664 356.686 1.68729 357.188 1.7596C357.698 1.83217 358.192 1.92628 358.671 2.04193C359.15 2.15053 359.583 2.28092 359.969 2.43308L361 2.84595V17.1658L360.606 17.0135C360.027 16.789 359.502 16.5935 359.03 16.4268C358.559 16.253 358.088 16.1081 357.617 15.9922C357.146 15.8763 356.648 15.7894 356.123 15.7314C355.605 15.6735 355.007 15.6445 354.327 15.6445C353.98 15.6445 353.616 15.6558 353.238 15.6785C352.867 15.7012 352.493 15.7375 352.114 15.7874C351.736 15.838 351.365 15.9068 351.002 15.9937C350.639 16.0733 350.296 16.1747 349.971 16.2979C349.562 16.4572 349.122 16.5949 348.65 16.7109C348.179 16.8195 347.697 16.91 347.202 16.9826C346.708 17.0552 346.214 17.1094 345.72 17.1455C345.233 17.1744 344.77 17.189 344.329 17.189C343.773 17.189 343.213 17.1709 342.65 17.1349C342.093 17.0913 341.545 17.008 341.005 16.8851V25.0011H336.846V4.62948C336.575 4.37598 336.367 4.08627 336.22 3.76032C336.073 3.42712 336 3.07944 336 2.71728C336 2.34064 336.077 1.98935 336.232 1.66341C336.386 1.3302 336.595 1.04049 336.857 0.794246C337.128 0.548073 337.437 0.356098 337.784 0.218372C338.139 0.0734906 338.518 0.00106812 338.919 0.00106812C339.336 0.00106812 339.723 0.0771698 340.078 0.229359C340.433 0.374241 340.742 0.573408 341.005 0.826888C341.267 1.08039 341.472 1.37735 341.619 1.71779C341.773 2.05099 341.85 2.40954 341.85 2.79344C341.85 2.82947 341.843 2.86929 341.828 2.91288C342.646 3.04314 343.48 3.10829 344.33 3.10829C344.832 3.10829 345.334 3.08649 345.836 3.0429C346.338 2.99956 346.832 2.92713 347.319 2.82559C347.744 2.74597 348.157 2.63735 348.558 2.49978C348.96 2.3622 349.369 2.23546 349.786 2.11953C350.52 1.924 351.269 1.78274 352.034 1.69579C352.798 1.60155 353.562 1.55363 354.327 1.55363Z" fill="white"/>
<g id="race-flag">
<path id="path956" d="M354.327 1.55369C354.744 1.55369 355.2 1.57178 355.694 1.60794C356.188 1.63696 356.687 1.68762 357.189 1.75995C357.698 1.83241 358.193 1.92659 358.671 2.04245C359.15 2.15108 359.583 2.28145 359.969 2.43359L361 2.84644V17.1663L360.606 17.0141C360.027 16.7895 359.502 16.594 359.03 16.4274C358.559 16.2536 358.088 16.1087 357.617 15.9928C357.146 15.8769 356.648 15.7899 356.123 15.732C355.605 15.6741 355.007 15.6452 354.327 15.6452C353.98 15.6452 353.617 15.6561 353.238 15.6778C352.867 15.6995 352.493 15.7358 352.114 15.7865C351.736 15.8372 351.365 15.906 351.002 15.9929C350.639 16.0727 350.296 16.1741 349.971 16.2972C349.562 16.4565 349.122 16.5942 348.651 16.7101C348.179 16.8187 347.697 16.9092 347.202 16.9817C346.708 17.0541 346.214 17.1084 345.72 17.1446C345.233 17.1736 344.77 17.1881 344.329 17.1881C343.773 17.1881 343.213 17.17 342.65 17.1339C342.094 17.0904 341.545 17.0071 341.005 16.884V25H336.846V4.62846C336.575 4.37495 336.367 4.08522 336.22 3.75928C336.073 3.42608 336 3.07842 336 2.71626C336 2.33962 336.077 1.98831 336.232 1.66235C336.386 1.32917 336.595 1.03945 336.857 0.793175C337.127 0.546905 337.436 0.354962 337.784 0.217348C338.139 0.0724868 338.518 6.10352e-05 338.919 6.10352e-05C339.336 6.10352e-05 339.722 0.0761158 340.078 0.228223C340.433 0.373084 340.742 0.572253 341.005 0.82577C341.267 1.07927 341.472 1.37627 341.619 1.7167C341.773 2.04989 341.85 2.40842 341.85 2.79232C341.85 2.82848 341.843 2.86828 341.827 2.91173C342.646 3.04208 343.48 3.10726 344.329 3.10726C344.831 3.10726 345.333 3.08556 345.835 3.04211C346.337 2.99866 346.832 2.9262 347.318 2.82479C347.743 2.74517 348.156 2.63653 348.558 2.49884C348.959 2.3612 349.369 2.23446 349.786 2.11858C350.52 1.92302 351.269 1.78177 352.033 1.69485C352.798 1.60066 353.562 1.55369 354.327 1.55369ZM359.366 5.44333C359.096 5.34914 358.818 5.26945 358.532 5.20429C358.254 5.13182 357.972 5.06664 357.687 5.00875V3.42249L357.559 3.3899C357.304 3.33201 357.046 3.28127 356.783 3.23767C356.528 3.19422 356.27 3.17252 356.007 3.17252V4.75878C355.729 4.72976 355.451 4.70806 355.173 4.69362C354.895 4.67189 354.617 4.66103 354.339 4.66103V3.10736C354.061 3.10736 353.783 3.11458 353.505 3.12901C353.234 3.14345 352.96 3.15794 352.682 3.17252V4.75881C352.396 4.78782 352.114 4.8204 351.836 4.85656C351.566 4.89272 351.296 4.94342 351.025 5.00859V3.41146C350.74 3.43318 350.45 3.49115 350.157 3.58534C349.871 3.67953 349.601 3.77731 349.346 3.87869V5.44323C349.075 5.55186 348.797 5.64241 348.512 5.71486C348.234 5.78733 347.952 5.85248 347.666 5.91037V4.36755C347.419 4.38198 347.164 4.42546 346.901 4.49792C346.639 4.5631 346.384 4.59568 346.137 4.59568C346.114 4.59568 346.09 4.59568 346.067 4.59568C346.044 4.58867 346.021 4.58515 345.998 4.58515V6.14969C345.727 6.17871 345.453 6.20041 345.175 6.21485C344.897 6.22929 344.619 6.23651 344.341 6.23651V4.66112C344.055 4.66112 343.773 4.65025 343.495 4.62853C343.217 4.59951 342.939 4.58502 342.661 4.58502V6.14953C342.383 6.12052 342.105 6.08794 341.827 6.05178C341.549 6.00833 341.275 5.96124 341.005 5.9105V4.36767C340.719 4.30979 340.437 4.2446 340.159 4.17214C339.881 4.09252 339.607 3.99475 339.336 3.87879C339.584 3.77016 339.788 3.61442 339.95 3.41159C340.113 3.20154 340.194 2.96974 340.194 2.71622C340.194 2.55688 340.159 2.4084 340.09 2.27078C340.02 2.12591 339.927 2.00277 339.811 1.90136C339.696 1.79273 339.561 1.70944 339.406 1.65148C339.252 1.5863 339.089 1.55373 338.919 1.55373C338.75 1.55373 338.587 1.5863 338.433 1.65148C338.286 1.70937 338.155 1.79266 338.039 1.90136C337.923 2.00284 337.831 2.12598 337.761 2.27078C337.699 2.40842 337.668 2.5569 337.668 2.71622C337.668 2.96974 337.742 3.19791 337.889 3.40071C338.035 3.59628 338.232 3.74478 338.479 3.84619V23.4464H339.337V14.8631C339.607 14.9646 339.881 15.0515 340.159 15.1239C340.437 15.1963 340.719 15.2615 341.005 15.3194V13.7549C341.275 13.8056 341.549 13.8527 341.827 13.8961C342.105 13.9323 342.383 13.9685 342.661 14.0048V15.5694C342.947 15.5911 343.229 15.6092 343.507 15.6236C343.785 15.6381 344.063 15.6453 344.341 15.6453V14.0699C344.89 14.0699 345.442 14.0482 345.998 14.0047V15.5692H346.044C346.307 15.5692 346.577 15.5403 346.855 15.4824C347.141 15.4245 347.411 15.3702 347.666 15.3195V13.7549C347.952 13.697 348.234 13.6319 348.512 13.5594C348.79 13.4869 349.064 13.4 349.334 13.2987V14.8632C349.396 14.8414 349.504 14.8052 349.659 14.7545C349.821 14.6966 349.991 14.6423 350.168 14.5915C350.346 14.5408 350.512 14.4974 350.667 14.4612C350.829 14.4177 350.941 14.396 351.003 14.396C351.003 14.396 351.003 14.3888 351.003 14.3743C351.01 14.3526 351.014 14.2947 351.014 14.2005C351.021 14.0992 351.025 13.9434 351.025 13.7333C351.025 13.516 351.025 13.2118 351.025 12.8207C351.573 12.6975 352.122 12.6214 352.67 12.5925V14.157C352.755 14.157 352.844 14.1535 352.936 14.1465C353.029 14.1321 353.118 14.1212 353.203 14.1139C353.388 14.0995 353.574 14.0886 353.759 14.0813C353.952 14.0743 354.145 14.0708 354.338 14.0708V12.5063C354.616 12.5063 354.894 12.5135 355.172 12.528C355.45 12.535 355.728 12.5567 356.006 12.5931V14.1577H356.099C356.354 14.1577 356.617 14.183 356.887 14.2338C357.165 14.2845 357.428 14.3388 357.675 14.3967V12.8322C357.968 12.8901 358.254 12.9517 358.532 13.017C358.818 13.0822 359.092 13.1763 359.355 13.2995V11.7023C359.084 11.6081 358.81 11.5248 358.532 11.4524C358.254 11.38 357.972 11.3112 357.686 11.246V9.70318C357.972 9.76107 358.254 9.8299 358.532 9.90966C358.81 9.98212 359.084 10.069 359.355 10.1704V8.57328C359.084 8.47909 358.81 8.39942 358.532 8.33427C358.254 8.26181 357.972 8.19662 357.686 8.13874V6.57419C357.972 6.63937 358.254 6.7082 358.532 6.78067C358.81 6.85313 359.084 6.94366 359.355 7.05227L359.366 5.44333ZM354.339 6.25816C354.617 6.25816 354.895 6.26538 355.173 6.27982C355.451 6.29425 355.729 6.31599 356.007 6.34501V7.8878C355.729 7.85878 355.451 7.83708 355.173 7.82264C354.895 7.8082 354.617 7.80098 354.339 7.80098V6.25816ZM354.339 9.3764C354.617 9.3764 354.895 9.38724 355.173 9.40896C355.451 9.4234 355.729 9.44149 356.007 9.46321V10.9952C355.729 10.9734 355.451 10.9553 355.173 10.9409C354.895 10.9265 354.617 10.9193 354.339 10.9193V9.3764ZM339.336 8.61585C339.607 8.71733 339.881 8.80061 340.159 8.86573C340.437 8.92362 340.715 8.98158 340.993 9.03961V10.6042C340.715 10.5463 340.437 10.4811 340.159 10.4086C339.881 10.3362 339.607 10.2529 339.336 10.1587V8.61585ZM339.336 11.7341C339.607 11.8355 339.881 11.9188 340.159 11.9839C340.437 12.0491 340.715 12.1107 340.993 12.1688V13.7333C340.715 13.6681 340.433 13.6029 340.147 13.5378C339.869 13.4653 339.599 13.3675 339.336 13.2444V11.7341ZM344.341 10.9409C344.619 10.9409 344.893 10.9337 345.164 10.9193C345.442 10.9048 345.72 10.8868 345.998 10.865V12.397C345.727 12.426 345.453 12.4514 345.175 12.4731C344.897 12.4875 344.619 12.4947 344.341 12.4947V10.9409ZM341.005 7.49676C341.275 7.5475 341.549 7.59459 341.827 7.63804C342.105 7.6742 342.383 7.70316 342.661 7.72489V9.27855C342.383 9.24954 342.105 9.21331 341.827 9.16986C341.549 9.12641 341.275 9.07931 341.005 9.02857V7.49676ZM339.336 5.48677C339.607 5.58825 339.881 5.67517 340.159 5.74752C340.437 5.8127 340.715 5.87432 340.993 5.93234V7.47513C340.715 7.41725 340.437 7.35563 340.159 7.29031C339.881 7.21785 339.607 7.12733 339.336 7.01871V5.48677ZM347.666 10.615L347.828 10.5824C348.083 10.5245 348.334 10.4665 348.581 10.4085C348.836 10.3506 349.087 10.2746 349.334 10.1804V11.7014C349.064 11.8029 348.79 11.8898 348.512 11.9622C348.234 12.0274 347.952 12.089 347.666 12.147L347.666 10.615ZM352.682 11.0278C352.952 10.9988 353.227 10.9771 353.505 10.9627C353.783 10.9482 354.057 10.941 354.327 10.941V12.4947C354.057 12.4947 353.783 12.5019 353.505 12.5163C353.227 12.5233 352.952 12.5414 352.682 12.5706V11.0278ZM351.025 9.70235C351.296 9.63717 351.566 9.59007 351.836 9.56106C352.114 9.5249 352.392 9.49229 352.67 9.46328V10.9952C352.4 11.0314 352.126 11.0676 351.848 11.1039C351.57 11.1401 351.296 11.1872 351.025 11.2452V9.70235ZM351.025 6.57326C351.296 6.52981 351.566 6.48634 351.836 6.44289C352.114 6.39943 352.392 6.36686 352.67 6.34513V7.88792C352.392 7.90965 352.114 7.94226 351.836 7.98571C351.566 8.02916 351.296 8.07625 351.025 8.12699V6.57326ZM341.005 10.615C341.275 10.6729 341.549 10.7235 341.827 10.767C342.105 10.8032 342.383 10.8357 342.661 10.8647V12.3858C342.383 12.3714 342.105 12.3425 341.827 12.299C341.549 12.2556 341.275 12.2085 341.005 12.1577V10.615ZM344.341 7.8227C344.619 7.8227 344.893 7.81548 345.164 7.80105C345.442 7.78661 345.72 7.76856 345.998 7.74683V9.27878C345.72 9.3005 345.442 9.31859 345.164 9.33303C344.893 9.34746 344.619 9.35468 344.341 9.35468V7.8227ZM352.682 4.76968C352.952 4.74067 353.227 4.72258 353.505 4.71544C353.783 4.701 354.057 4.69013 354.327 4.68284V6.23651C353.771 6.23651 353.223 6.25824 352.682 6.3017V4.76968ZM347.666 7.49676C347.952 7.43887 348.233 7.37728 348.512 7.31197C348.79 7.2395 349.064 7.15258 349.334 7.05121V8.57228C349.064 8.67376 348.79 8.76067 348.512 8.83304C348.233 8.89822 347.952 8.95618 347.666 9.00692V7.49676ZM346.021 9.28946C346.291 9.26773 346.561 9.23516 346.832 9.19171C347.11 9.14826 347.384 9.10116 347.654 9.05042V10.6041C347.384 10.662 347.11 10.7091 346.832 10.7454C346.561 10.7744 346.291 10.807 346.021 10.8431V9.28946ZM342.684 9.28946C342.955 9.31119 343.225 9.33292 343.495 9.35465C343.773 9.36909 344.048 9.3763 344.318 9.3763V10.9191C344.048 10.9191 343.773 10.9119 343.495 10.8974C343.225 10.883 342.955 10.8649 342.684 10.8432V9.28946ZM342.684 6.16038C342.955 6.18939 343.225 6.21478 343.495 6.23651C343.773 6.25094 344.048 6.25816 344.318 6.25816V7.80095C343.769 7.80095 343.225 7.76838 342.684 7.7032V6.16038ZM349.357 5.47589C349.62 5.36726 349.886 5.28037 350.157 5.21517C350.435 5.1427 350.713 5.07752 350.991 5.01963V6.55158C350.713 6.61675 350.435 6.68559 350.157 6.75805C349.886 6.83052 349.62 6.91741 349.357 7.01878V5.47589ZM346.021 6.16038C346.561 6.11693 347.106 6.04087 347.654 5.93222V7.47504C347.384 7.52578 347.11 7.57287 346.832 7.61632C346.561 7.65977 346.291 7.6887 346.021 7.70314V6.16038ZM349.357 8.60497C349.62 8.50349 349.886 8.41658 350.157 8.34422C350.435 8.27175 350.713 8.20657 350.991 8.14868V9.69147C350.713 9.74936 350.438 9.81454 350.168 9.88701C349.898 9.95218 349.628 10.0355 349.357 10.1369V8.60497ZM342.684 12.4294C342.955 12.4511 343.225 12.4692 343.495 12.4836C343.773 12.4981 344.048 12.5053 344.318 12.5053V14.0481C344.048 14.0481 343.773 14.0409 343.495 14.0264C343.225 14.012 342.955 13.9903 342.684 13.9613V12.4294ZM346.021 12.4294C346.291 12.4004 346.561 12.3678 346.832 12.3316C347.11 12.2882 347.384 12.2375 347.654 12.1796V13.7333C347.384 13.784 347.11 13.8311 346.832 13.8746C346.561 13.9107 346.291 13.9397 346.021 13.9614V12.4294ZM352.682 7.90964C352.952 7.88063 353.227 7.85889 353.505 7.84445C353.783 7.83002 354.057 7.8228 354.327 7.8228V9.35471C354.057 9.35471 353.783 9.36196 353.505 9.3764C353.227 9.38341 352.952 9.40146 352.682 9.43062V7.90964ZM349.357 11.7341C349.597 11.6327 349.84 11.5494 350.087 11.4842C350.334 11.419 350.585 11.3574 350.84 11.2994L350.991 11.2668V12.7987C350.713 12.8566 350.438 12.9218 350.168 12.9942C349.898 13.0594 349.628 13.1427 349.357 13.2441L349.357 11.7341ZM356.03 4.76968C356.3 4.80585 356.571 4.84207 356.841 4.87838C357.111 4.91454 357.382 4.96163 357.652 5.01966V6.54073C357.127 6.44654 356.586 6.37049 356.03 6.31257V4.76968ZM356.03 11.0278C356.3 11.0569 356.571 11.0931 356.841 11.1365C357.111 11.1727 357.382 11.2161 357.652 11.2669V12.7988C357.382 12.7409 357.111 12.6975 356.841 12.6685C356.571 12.6323 356.3 12.5997 356.03 12.5707V11.0278ZM356.03 7.90964C356.3 7.93137 356.571 7.96394 356.841 8.00739C357.111 8.05085 357.382 8.09794 357.652 8.14868V9.68063C357.382 9.62274 357.111 9.57564 356.841 9.53934C356.571 9.49589 356.3 9.45963 356.03 9.43062V7.90964Z" fill="black"/>
</g>
</g>
</g>
<defs>
<clipPath id="clip0_205_94">
<rect width="400" height="30" fill="white"/>
</clipPath>
</defs>
</svg>
